<svg width="313" height="210" viewBox="0 0 313 210" fill="none" xmlns="http://www.w3.org/2000/svg">
<path fill-rule="evenodd" clip-rule="evenodd" d="M118.535 149.051C114.025 138.624 100.17 133.063 89.2738 136.278C83.0226 138.122 76.405 139.112 69.5561 139.112C31.1413 139.112 0 107.971 0 69.5561C0 31.1413 31.1413 0 69.5561 0C89.9355 0 108.268 8.76436 120.989 22.7295C128.627 31.1141 143.327 33.5141 152.552 26.9163C169.075 15.1 189.313 8.14621 211.175 8.14621C266.894 8.14621 312.063 53.3152 312.063 109.034C312.063 164.753 266.894 209.922 211.175 209.922C169.674 209.922 134.026 184.863 118.535 149.051Z" fill="#0B22FE"/>
</svg>
