<svg width="16" height="16" viewBox="0 0 16 16" fill="none" xmlns="http://www.w3.org/2000/svg">
<path d="M6.00048 8C6.00048 6.89548 6.89567 5.99984 8.00024 5.99984C9.10481 5.99984 10.0005 6.89548 10.0005 8C10.0005 9.10452 9.10481 10.0002 8.00024 10.0002C6.89567 10.0002 6.00048 9.10452 6.00048 8ZM4.91918 8C4.91918 9.70162 6.29856 11.0809 8.00024 11.0809C9.70193 11.0809 11.0813 9.70162 11.0813 8C11.0813 6.29838 9.70193 4.91906 8.00024 4.91906C6.29856 4.91906 4.91918 6.29838 4.91918 8ZM10.4832 4.79693C10.4832 5.19435 10.8055 5.51712 11.2034 5.51712C11.6009 5.51712 11.9237 5.19435 11.9237 4.79693C11.9237 4.39952 11.6014 4.07722 11.2034 4.07722C10.8055 4.07722 10.4832 4.39952 10.4832 4.79693ZM5.57591 12.8838C4.99091 12.8572 4.67297 12.7598 4.46165 12.6774C4.18151 12.5683 3.98182 12.4384 3.77148 12.2286C3.56161 12.0187 3.43124 11.8191 3.32267 11.5389C3.24028 11.3276 3.14286 11.0097 3.1162 10.4247C3.08712 9.79225 3.0813 9.60226 3.0813 8C3.0813 6.39774 3.0876 6.20824 3.1162 5.57528C3.14286 4.99031 3.24076 4.67286 3.32267 4.46107C3.43172 4.18094 3.56161 3.98126 3.77148 3.77092C3.98134 3.56107 4.18103 3.43069 4.46165 3.32213C4.67297 3.23974 4.99091 3.14233 5.57591 3.11567C6.20841 3.08659 6.3984 3.08078 8.00024 3.08078C9.60257 3.08078 9.79208 3.08708 10.4251 3.11567C11.0101 3.14233 11.3275 3.24023 11.5393 3.32213C11.8195 3.43069 12.0191 3.56107 12.2295 3.77092C12.4394 3.98078 12.5692 4.18094 12.6783 4.46107C12.7607 4.67237 12.8581 4.99031 12.8848 5.57528C12.9139 6.20824 12.9197 6.39774 12.9197 8C12.9197 9.60178 12.9139 9.79176 12.8848 10.4247C12.8581 11.0097 12.7602 11.3276 12.6783 11.5389C12.5692 11.8191 12.4394 12.0187 12.2295 12.2286C12.0196 12.4384 11.8195 12.5683 11.5393 12.6774C11.328 12.7598 11.0101 12.8572 10.4251 12.8838C9.79256 12.9129 9.60257 12.9187 8.00024 12.9187C6.3984 12.9187 6.20841 12.9129 5.57591 12.8838ZM5.52648 2.03635C4.88768 2.06543 4.45147 2.16672 4.07004 2.31502C3.67551 2.46817 3.34109 2.67367 3.00715 3.00711C2.67369 3.34055 2.46819 3.67496 2.31504 4.06995C2.16673 4.45137 2.06543 4.88756 2.03635 5.52633C2.00679 6.16607 2 6.3706 2 8C2 9.6294 2.00679 9.83393 2.03635 10.4737C2.06543 11.1124 2.16673 11.5486 2.31504 11.93C2.46819 12.3246 2.67321 12.6595 3.00715 12.9929C3.3406 13.3263 3.67503 13.5313 4.07004 13.685C4.45196 13.8333 4.88768 13.9346 5.52648 13.9637C6.16673 13.9927 6.37077 14 8.00024 14C9.6302 14 9.83424 13.9932 10.474 13.9637C11.1128 13.9346 11.549 13.8333 11.9304 13.685C12.325 13.5313 12.6594 13.3263 12.9933 12.9929C13.3268 12.6595 13.5318 12.3246 13.6854 11.93C13.8338 11.5486 13.9355 11.1124 13.9641 10.4737C13.9932 9.83344 14 9.6294 14 8C14 6.3706 13.9932 6.16607 13.9641 5.52633C13.9351 4.88756 13.8338 4.45137 13.6854 4.06995C13.5318 3.67544 13.3268 3.34103 12.9933 3.00711C12.6599 2.67367 12.325 2.46817 11.9309 2.31502C11.549 2.16672 11.1128 2.06494 10.4745 2.03635C9.83473 2.00727 9.6302 2 8.00073 2C6.37077 2 6.16673 2.00679 5.52648 2.03635Z" fill="white"/>
</svg>
