<svg width="16" height="16" viewBox="0 0 16 16" fill="none" xmlns="http://www.w3.org/2000/svg">
<path d="M2.2442 3.77778C2.2442 3.4074 2.37384 3.10184 2.63311 2.86111C2.89237 2.62037 3.22943 2.5 3.64426 2.5C4.05169 2.5 4.38133 2.61851 4.63319 2.85556C4.89246 3.1 5.0221 3.41851 5.0221 3.81111C5.0221 4.16666 4.89617 4.46295 4.64431 4.7C4.38504 4.94444 4.04428 5.06666 3.62204 5.06666H3.61093C3.2035 5.06666 2.87386 4.94444 2.622 4.7C2.37013 4.45555 2.2442 4.14814 2.2442 3.77778ZM2.38865 13.5V6.07777H4.85543V13.5H2.38865ZM6.22215 13.5H8.68893V9.35555C8.68893 9.09628 8.71856 8.89628 8.77782 8.75555C8.88152 8.50369 9.03894 8.29073 9.25006 8.11666C9.46118 7.94258 9.72601 7.85555 10.0445 7.85555C10.8742 7.85555 11.289 8.4148 11.289 9.53332V13.5H13.7558V9.24443C13.7558 8.14814 13.4965 7.31666 12.978 6.74999C12.4595 6.18333 11.7742 5.9 10.9224 5.9C9.96676 5.9 9.22228 6.31111 8.68893 7.13333V7.15555H8.67781L8.68893 7.13333V6.07777H6.22215C6.23696 6.31481 6.24438 7.05184 6.24438 8.28888C6.24438 9.52591 6.23696 11.2629 6.22215 13.5Z" fill="white"/>
</svg>
