<svg width="16" height="16" viewBox="0 0 16 16" fill="none" xmlns="http://www.w3.org/2000/svg">
<path fill-rule="evenodd" clip-rule="evenodd" d="M2.30827 4.70207C2.99909 3.80055 3.91608 3.20001 4.94885 3.20001C5.63238 3.20001 6.31204 3.40645 7.02151 3.99768C7.39555 4.30911 7.78145 4.71774 8.19642 5.25387C8.53356 4.78916 8.8972 4.34968 9.28844 4.0015C9.8675 3.4864 10.4918 3.20026 11.1202 3.20026C12.1754 3.20026 13.1804 3.82418 13.9496 4.99434C14.7914 6.27579 15.2 7.88996 15.2 9.55564V9.55583C15.2 9.61766 15.1992 9.67847 15.1978 9.73827C15.1756 10.6364 14.9884 11.3097 14.6832 11.8486C14.3687 12.4045 13.7558 12.96 12.7247 12.96V12.9598C12.0837 12.9598 11.5159 12.8178 10.8879 12.2132C10.4054 11.7493 9.84078 10.9251 9.40661 10.1842L8.11513 7.98289C8.0783 7.92009 8.04164 7.8582 8.00519 7.79725C7.96841 7.86366 7.93127 7.9308 7.89377 7.99865L7.44005 8.81878C6.52877 10.468 6.29787 10.8434 5.84216 11.4631C5.04349 12.5483 4.36141 12.9598 3.46358 12.9598C2.39842 12.9598 1.72491 12.4891 1.30775 11.7799C0.972592 11.2111 0.805278 10.4674 0.800111 9.62023C0.80005 9.6101 0.800011 9.59996 0.799996 9.5898C0.79999 9.58642 0.799988 9.58303 0.799988 9.57964C0.799988 8.00837 1.22264 6.37069 2.02638 5.10599C2.11551 4.96579 2.20958 4.83086 2.30827 4.70207ZM3.3509 5.90876C2.73343 6.85969 2.35565 8.27611 2.35565 9.63633C2.35565 10.1974 2.47629 10.6281 2.63408 10.8887L2.63387 10.8889C2.8407 11.2301 3.14912 11.375 3.46358 11.375C3.86916 11.375 4.24023 11.2722 4.95531 10.263C5.35926 9.6928 5.81384 8.96032 6.20604 8.32836L6.20605 8.32834L6.2061 8.32826C6.37023 8.0638 6.52343 7.81694 6.65743 7.60695L7.26973 6.64698C6.97074 6.21252 6.71354 5.88188 6.52877 5.6814C6.15865 5.28023 5.68292 4.79584 4.92376 4.79584C4.30936 4.79584 3.78755 5.23579 3.3509 5.90876ZM9.65705 7.46287C9.39314 7.01434 9.14263 6.61088 8.90294 6.24797C8.94564 6.18044 8.98815 6.11452 9.03052 6.05026C9.70307 5.02997 10.3015 4.45757 11.0452 4.45757C11.7327 4.45757 12.3577 4.92153 12.8399 5.68085C13.5194 6.75136 13.8279 8.24952 13.8279 9.59952V9.59959C13.8279 9.78084 13.8198 9.95771 13.8006 10.1252C13.7193 10.8334 13.4387 11.3747 12.7247 11.3747V11.3748C12.3767 11.3748 12.1087 11.2337 11.7262 10.7606C11.4287 10.3921 10.9205 9.61085 10.0271 8.0922L9.65705 7.46287Z" fill="white"/>
</svg>
