<svg width="640" height="211" viewBox="0 0 640 211" fill="none" xmlns="http://www.w3.org/2000/svg">
<path fill-rule="evenodd" clip-rule="evenodd" d="M486.373 149.333C481.863 138.906 468.008 133.345 457.112 136.56C450.861 138.404 444.243 139.394 437.394 139.394C398.979 139.394 367.838 108.253 367.838 69.8381C367.838 31.4234 398.979 0.282013 437.394 0.282013C457.774 0.282013 476.106 9.04638 488.828 23.0115C496.466 31.3961 511.165 33.7961 520.39 27.1983C536.913 15.382 557.151 8.42822 579.013 8.42822C634.732 8.42822 679.901 53.5972 679.901 109.316C679.901 165.035 634.732 210.204 579.013 210.204C537.512 210.204 501.864 185.145 486.373 149.333Z" fill="#0B22FE"/>
<g opacity="0.15" filter="url(#filter0_f_128_3493)">
<path d="M115.767 57.4968C112.127 60.8606 110.308 65.6581 110.308 71.8893C110.308 78.1206 112.127 82.9456 115.767 86.3645C119.406 89.7283 123.68 91.4102 128.588 91.4102C133.551 91.4102 137.852 89.7283 141.491 86.3645C145.131 82.9456 146.95 78.1206 146.95 71.8893C146.95 65.6581 145.131 60.8606 141.491 57.4968C137.852 54.0779 133.551 52.3685 128.588 52.3685C123.68 52.3685 119.406 54.0779 115.767 57.4968ZM98.4792 71.972C98.4792 62.8182 101.429 55.429 107.33 49.8043C113.23 44.1797 120.316 41.3673 128.588 41.3673C136.914 41.3673 144.028 44.1797 149.928 49.8043C155.829 55.429 158.779 62.8182 158.779 71.972C158.779 81.0707 155.829 88.4324 149.928 94.0571C144.028 99.6817 136.914 102.494 128.588 102.494C120.316 102.494 113.23 99.6817 107.33 94.0571C101.429 88.4324 98.4792 81.0707 98.4792 71.972ZM178.849 116.969H167.848V60.5573H178.518V65.5202C179.511 63.8659 181.11 62.4873 183.315 61.3845C185.521 60.2265 188.085 59.6474 191.008 59.6474C196.798 59.6474 201.375 61.6326 204.739 65.603C208.103 69.5181 209.784 74.5914 209.784 80.8226C209.784 87.0538 207.992 92.1822 204.408 96.2077C200.879 100.233 196.274 102.246 190.594 102.246C185.19 102.246 181.275 100.592 178.849 97.283V116.969ZM196.054 89.3423C197.984 87.2468 198.949 84.4345 198.949 80.9053C198.949 77.3761 197.984 74.5914 196.054 72.551C194.179 70.5107 191.78 69.4906 188.857 69.4906C185.935 69.4906 183.508 70.5383 181.578 72.6338C179.648 74.6741 178.683 77.4313 178.683 80.9053C178.683 84.3794 179.648 87.1641 181.578 89.2596C183.508 91.355 185.935 92.4027 188.857 92.4027C191.78 92.4027 194.179 91.3826 196.054 89.3423ZM229.496 116.969H218.495V60.5573H229.165V65.5202C230.158 63.8659 231.757 62.4873 233.963 61.3845C236.168 60.2265 238.732 59.6474 241.655 59.6474C247.445 59.6474 252.022 61.6326 255.386 65.603C258.75 69.5181 260.431 74.5914 260.431 80.8226C260.431 87.0538 258.639 92.1822 255.055 96.2077C251.526 100.233 246.921 102.246 241.241 102.246C235.837 102.246 231.922 100.592 229.496 97.283V116.969ZM246.701 89.3423C248.631 87.2468 249.596 84.4345 249.596 80.9053C249.596 77.3761 248.631 74.5914 246.701 72.551C244.826 70.5107 242.427 69.4906 239.504 69.4906C236.582 69.4906 234.156 70.5383 232.225 72.6338C230.295 74.6741 229.33 77.4313 229.33 80.9053C229.33 84.3794 230.295 87.1641 232.225 89.2596C234.156 91.355 236.582 92.4027 239.504 92.4027C242.427 92.4027 244.826 91.3826 246.701 89.3423ZM280.06 89.425C282.101 91.4653 284.554 92.4855 287.422 92.4855C290.289 92.4855 292.716 91.4653 294.701 89.425C296.741 87.3847 297.761 84.5448 297.761 80.9053C297.761 77.2658 296.741 74.4259 294.701 72.3856C292.716 70.3453 290.289 69.3251 287.422 69.3251C284.554 69.3251 282.101 70.3453 280.06 72.3856C278.075 74.4259 277.082 77.2658 277.082 80.9053C277.082 84.5448 278.075 87.3847 280.06 89.425ZM272.12 65.4375C276.2 61.3569 281.301 59.3166 287.422 59.3166C293.543 59.3166 298.616 61.3569 302.642 65.4375C306.722 69.5181 308.762 74.6741 308.762 80.9053C308.762 87.1365 306.722 92.2925 302.642 96.3731C298.616 100.454 293.543 102.494 287.422 102.494C281.301 102.494 276.2 100.454 272.12 96.3731C268.094 92.2925 266.081 87.1365 266.081 80.9053C266.081 74.6741 268.094 69.5181 272.12 65.4375ZM342.261 60.3919V71.4757C341.158 71.2552 340.055 71.1449 338.952 71.1449C335.809 71.1449 333.272 72.0548 331.342 73.8745C329.412 75.6391 328.447 78.5617 328.447 82.6423V101.253H317.446V60.5573H328.117V66.5955C330.102 62.3495 333.962 60.2265 339.697 60.2265C340.303 60.2265 341.158 60.2816 342.261 60.3919ZM365.18 48.3981V60.5573H373.369V70.3177H365.18V87.3571C365.18 89.0666 365.566 90.2797 366.338 90.9966C367.11 91.7135 368.323 92.0719 369.978 92.0719C371.467 92.0719 372.597 91.9616 373.369 91.741V100.84C371.77 101.501 369.702 101.832 367.165 101.832C363.195 101.832 360.052 100.729 357.736 98.5237C355.42 96.2628 354.262 93.1748 354.262 89.2596V70.3177H346.9V60.5573H348.968C351.008 60.5573 352.552 59.9783 353.6 58.8203C354.703 57.6071 355.254 56.0355 355.254 54.1055V48.3981H365.18ZM409.591 101.253C409.37 100.15 409.26 98.6891 409.26 96.8694C408.212 98.6891 406.64 100.068 404.545 101.005C402.505 101.887 400.326 102.329 398.01 102.329C393.213 102.329 389.436 100.812 386.678 97.7792C383.921 94.6912 382.543 90.8587 382.543 86.2818V60.5573H393.544V84.0485C393.544 86.4748 394.178 88.46 395.446 90.004C396.715 91.4929 398.562 92.2373 400.988 92.2373C403.359 92.2373 405.234 91.5204 406.613 90.0867C407.991 88.5978 408.681 86.6402 408.681 84.2139V60.5573H419.682V93.8916C419.682 96.4834 419.82 98.9373 420.095 101.253H409.591ZM442.423 77.8448V101.253H431.422V60.5573H442.093V65.603C443.251 63.6178 444.905 62.1013 447.056 61.0536C449.206 60.0059 451.467 59.482 453.838 59.482C458.636 59.482 462.275 60.9985 464.757 64.0314C467.293 67.0091 468.562 70.8692 468.562 75.6115V101.253H457.56V77.514C457.56 75.0877 456.926 73.1301 455.658 71.6412C454.445 70.1523 452.57 69.4079 450.033 69.4079C447.717 69.4079 445.87 70.2074 444.491 71.8066C443.113 73.4058 442.423 75.4185 442.423 77.8448ZM490.728 101.253H479.727V60.5573H490.728V101.253ZM478.403 47.2401C478.403 45.3652 479.065 43.7661 480.389 42.4426C481.712 41.064 483.311 40.3748 485.186 40.3748C487.061 40.3748 488.66 41.0365 489.984 42.3599C491.307 43.6834 491.969 45.3101 491.969 47.2401C491.969 49.0599 491.307 50.6315 489.984 51.9549C488.66 53.2784 487.061 53.9401 485.186 53.9401C483.311 53.9401 481.712 53.2784 480.389 51.9549C479.065 50.6315 478.403 49.0599 478.403 47.2401ZM516.071 48.3981V60.5573H524.26V70.3177H516.071V87.3571C516.071 89.0666 516.457 90.2797 517.229 90.9966C518.001 91.7135 519.214 92.0719 520.869 92.0719C522.358 92.0719 523.488 91.9616 524.26 91.741V100.84C522.661 101.501 520.593 101.832 518.056 101.832C514.086 101.832 510.943 100.729 508.627 98.5237C506.311 96.2628 505.153 93.1748 505.153 89.2596V70.3177H497.791V60.5573H499.859C501.899 60.5573 503.443 59.9783 504.491 58.8203C505.594 57.6071 506.145 56.0355 506.145 54.1055V48.3981H516.071ZM548.555 117.3H536.892L546.487 96.1249L529.2 60.5573H541.524L552.36 84.3794L562.369 60.5573H574.114L548.555 117.3Z" fill="black"/>
</g>
<path d="M114.513 56.2435C110.874 59.6073 109.054 64.4048 109.054 70.636C109.054 76.8673 110.874 81.6923 114.513 85.1112C118.153 88.475 122.427 90.1569 127.334 90.1569C132.297 90.1569 136.598 88.475 140.238 85.1112C143.877 81.6923 145.697 76.8673 145.697 70.636C145.697 64.4048 143.877 59.6073 140.238 56.2435C136.598 52.8246 132.297 51.1152 127.334 51.1152C122.427 51.1152 118.153 52.8246 114.513 56.2435ZM97.2259 70.7187C97.2259 61.5649 100.176 54.1757 106.076 48.551C111.977 42.9264 119.063 40.114 127.334 40.114C135.661 40.114 142.775 42.9264 148.675 48.551C154.575 54.1757 157.525 61.5649 157.525 70.7187C157.525 79.8174 154.575 87.1791 148.675 92.8038C142.775 98.4284 135.661 101.241 127.334 101.241C119.063 101.241 111.977 98.4284 106.076 92.8038C100.176 87.1791 97.2259 79.8174 97.2259 70.7187ZM177.596 115.716H166.594V59.304H177.265V64.2669C178.257 62.6126 179.856 61.234 182.062 60.1312C184.268 58.9732 186.832 58.3941 189.755 58.3941C195.545 58.3941 200.122 60.3793 203.485 64.3497C206.849 68.2649 208.531 73.3381 208.531 79.5693C208.531 85.8005 206.739 90.9289 203.155 94.9544C199.625 98.9798 195.021 100.993 189.341 100.993C183.937 100.993 180.022 99.3383 177.596 96.0297V115.716ZM194.8 88.089C196.73 85.9935 197.695 83.1812 197.695 79.652C197.695 76.1228 196.73 73.3381 194.8 71.2978C192.925 69.2574 190.527 68.2373 187.604 68.2373C184.682 68.2373 182.255 69.285 180.325 71.3805C178.395 73.4208 177.43 76.178 177.43 79.652C177.43 83.1261 178.395 85.9108 180.325 88.0063C182.255 90.1017 184.682 91.1495 187.604 91.1495C190.527 91.1495 192.925 90.1293 194.8 88.089ZM228.243 115.716H217.241V59.304H227.912V64.2669C228.904 62.6126 230.503 61.234 232.709 60.1312C234.915 58.9732 237.479 58.3941 240.402 58.3941C246.192 58.3941 250.769 60.3793 254.133 64.3497C257.496 68.2649 259.178 73.3381 259.178 79.5693C259.178 85.8005 257.386 90.9289 253.802 94.9544C250.272 98.9798 245.668 100.993 239.988 100.993C234.584 100.993 230.669 99.3383 228.243 96.0297V115.716ZM245.447 88.089C247.377 85.9935 248.342 83.1812 248.342 79.652C248.342 76.1228 247.377 73.3381 245.447 71.2978C243.573 69.2574 241.174 68.2373 238.251 68.2373C235.329 68.2373 232.902 69.285 230.972 71.3805C229.042 73.4208 228.077 76.178 228.077 79.652C228.077 83.1261 229.042 85.9108 230.972 88.0063C232.902 90.1017 235.329 91.1495 238.251 91.1495C241.174 91.1495 243.573 90.1293 245.447 88.089ZM278.807 88.1717C280.847 90.212 283.301 91.2322 286.169 91.2322C289.036 91.2322 291.462 90.212 293.448 88.1717C295.488 86.1314 296.508 83.2915 296.508 79.652C296.508 76.0125 295.488 73.1726 293.448 71.1323C291.462 69.092 289.036 68.0719 286.169 68.0719C283.301 68.0719 280.847 69.092 278.807 71.1323C276.822 73.1726 275.829 76.0125 275.829 79.652C275.829 83.2915 276.822 86.1314 278.807 88.1717ZM270.866 64.1842C274.947 60.1036 280.048 58.0633 286.169 58.0633C292.29 58.0633 297.363 60.1036 301.388 64.1842C305.469 68.2649 307.509 73.4208 307.509 79.652C307.509 85.8832 305.469 91.0392 301.388 95.1198C297.363 99.2004 292.29 101.241 286.169 101.241C280.048 101.241 274.947 99.2004 270.866 95.1198C266.841 91.0392 264.828 85.8832 264.828 79.652C264.828 73.4208 266.841 68.2649 270.866 64.1842ZM341.008 59.1386V70.2225C339.905 70.0019 338.802 69.8916 337.699 69.8916C334.556 69.8916 332.019 70.8015 330.089 72.6212C328.159 74.3858 327.194 77.3084 327.194 81.389V100H316.193V59.304H326.863V65.3422C328.848 61.0962 332.708 58.9732 338.443 58.9732C339.05 58.9732 339.905 59.0283 341.008 59.1386ZM363.927 47.1448V59.304H372.116V69.0644H363.927V86.1038C363.927 87.8133 364.313 89.0264 365.085 89.7433C365.857 90.4602 367.07 90.8186 368.724 90.8186C370.213 90.8186 371.344 90.7083 372.116 90.4877V99.5864C370.517 100.248 368.449 100.579 365.912 100.579C361.942 100.579 358.799 99.4761 356.482 97.2704C354.166 95.0095 353.008 91.9215 353.008 88.0063V69.0644H345.647V59.304H347.715C349.755 59.304 351.299 58.725 352.347 57.567C353.45 56.3538 354.001 54.7822 354.001 52.8522V47.1448H363.927ZM408.337 100C408.117 98.8971 408.006 97.4358 408.006 95.6161C406.959 97.4358 405.387 98.8144 403.292 99.7519C401.251 100.634 399.073 101.075 396.757 101.075C391.96 101.075 388.182 99.5589 385.425 96.526C382.668 93.4379 381.289 89.6054 381.289 85.0285V59.304H392.291V82.7952C392.291 85.2215 392.925 87.2067 394.193 88.7507C395.461 90.2396 397.309 90.984 399.735 90.984C402.106 90.984 403.981 90.2672 405.36 88.8334C406.738 87.3445 407.427 85.3869 407.427 82.9606V59.304H418.429V92.6383C418.429 95.2301 418.566 97.684 418.842 100H408.337ZM441.17 76.5915V100H430.169V59.304H440.839V64.3497C441.997 62.3645 443.652 60.848 445.802 59.8003C447.953 58.7526 450.214 58.2287 452.585 58.2287C457.382 58.2287 461.022 59.7452 463.503 62.7781C466.04 65.7558 467.308 69.6159 467.308 74.3582V100H456.307V76.2607C456.307 73.8344 455.673 71.8768 454.405 70.3879C453.191 68.899 451.317 68.1546 448.78 68.1546C446.464 68.1546 444.617 68.9541 443.238 70.5533C441.859 72.1525 441.17 74.1652 441.17 76.5915ZM489.475 100H478.474V59.304H489.475V100ZM477.15 45.9868C477.15 44.112 477.812 42.5128 479.135 41.1893C480.459 39.8108 482.058 39.1215 483.933 39.1215C485.808 39.1215 487.407 39.7832 488.73 41.1066C490.054 42.4301 490.715 44.0568 490.715 45.9868C490.715 47.8066 490.054 49.3782 488.73 50.7016C487.407 52.0251 485.808 52.6868 483.933 52.6868C482.058 52.6868 480.459 52.0251 479.135 50.7016C477.812 49.3782 477.15 47.8066 477.15 45.9868ZM514.818 47.1448V59.304H523.007V69.0644H514.818V86.1038C514.818 87.8133 515.204 89.0264 515.976 89.7433C516.748 90.4602 517.961 90.8186 519.615 90.8186C521.104 90.8186 522.235 90.7083 523.007 90.4877V99.5864C521.408 100.248 519.34 100.579 516.803 100.579C512.833 100.579 509.69 99.4761 507.373 97.2704C505.057 95.0095 503.899 91.9215 503.899 88.0063V69.0644H496.538V59.304H498.606C500.646 59.304 502.19 58.725 503.238 57.567C504.341 56.3538 504.892 54.7822 504.892 52.8522V47.1448H514.818ZM547.302 116.047H535.639L545.234 94.8716L527.946 59.304H540.271L551.107 83.1261L561.115 59.304H572.861L547.302 116.047Z" fill="white"/>
<path d="M69.228 28.5214H84.8612V12.3919H94.1253V28.5214H109.841V37.5373H94.1253V53.7496H84.8612V37.5373H69.228V28.5214Z" fill="white"/>
<defs>
<filter id="filter0_f_128_3493" x="83.4401" y="25.3356" width="505.713" height="107.004" filterUnits="userSpaceOnUse" color-interpolation-filters="sRGB">
<feFlood flood-opacity="0" result="BackgroundImageFix"/>
<feBlend mode="normal" in="SourceGraphic" in2="BackgroundImageFix" result="shape"/>
<feGaussianBlur stdDeviation="7.51958" result="effect1_foregroundBlur_128_3493"/>
</filter>
</defs>
</svg>
