<svg width="584" height="211" viewBox="0 0 584 211" fill="none" xmlns="http://www.w3.org/2000/svg">
<path fill-rule="evenodd" clip-rule="evenodd" d="M417.373 149.333C412.863 138.906 399.008 133.345 388.112 136.56C381.861 138.404 375.243 139.394 368.394 139.394C329.979 139.394 298.838 108.253 298.838 69.8381C298.838 31.4234 329.979 0.282013 368.394 0.282013C388.774 0.282013 407.106 9.04638 419.828 23.0115C427.466 31.3961 442.165 33.7961 451.39 27.1983C467.913 15.382 488.151 8.42822 510.013 8.42822C565.732 8.42822 610.901 53.5972 610.901 109.316C610.901 165.035 565.732 210.204 510.013 210.204C468.512 210.204 432.864 185.145 417.373 149.333Z" fill="#0B22FE"/>
<g opacity="0.15" filter="url(#filter0_f_123_4368)">
<path d="M46.7667 57.4968C43.1272 60.8606 41.3075 65.6581 41.3075 71.8893C41.3075 78.1206 43.1272 82.9456 46.7667 86.3645C50.4062 89.7283 54.6798 91.4102 59.5876 91.4102C64.5505 91.4102 68.8517 89.7283 72.4912 86.3645C76.1306 82.9456 77.9504 78.1206 77.9504 71.8893C77.9504 65.6581 76.1306 60.8606 72.4912 57.4968C68.8517 54.0779 64.5505 52.3685 59.5876 52.3685C54.6798 52.3685 50.4062 54.0779 46.7667 57.4968ZM29.4792 71.972C29.4792 62.8182 32.4293 55.429 38.3297 49.8043C44.2301 44.1797 51.316 41.3673 59.5876 41.3673C67.9143 41.3673 75.0278 44.1797 80.9281 49.8043C86.8285 55.429 89.7787 62.8182 89.7787 71.972C89.7787 81.0707 86.8285 88.4324 80.9281 94.0571C75.0278 99.6817 67.9143 102.494 59.5876 102.494C51.316 102.494 44.2301 99.6817 38.3297 94.0571C32.4293 88.4324 29.4792 81.0707 29.4792 71.972ZM109.849 116.969H98.8477V60.5573H109.518V65.5202C110.511 63.8659 112.11 62.4873 114.315 61.3845C116.521 60.2265 119.085 59.6474 122.008 59.6474C127.798 59.6474 132.375 61.6326 135.739 65.603C139.102 69.5181 140.784 74.5914 140.784 80.8226C140.784 87.0538 138.992 92.1822 135.408 96.2077C131.879 100.233 127.274 102.246 121.594 102.246C116.19 102.246 112.275 100.592 109.849 97.283V116.969ZM127.054 89.3423C128.984 87.2468 129.949 84.4345 129.949 80.9053C129.949 77.3761 128.984 74.5914 127.054 72.551C125.179 70.5107 122.78 69.4906 119.857 69.4906C116.935 69.4906 114.508 70.5383 112.578 72.6338C110.648 74.6741 109.683 77.4313 109.683 80.9053C109.683 84.3794 110.648 87.1641 112.578 89.2596C114.508 91.355 116.935 92.4027 119.857 92.4027C122.78 92.4027 125.179 91.3826 127.054 89.3423ZM160.496 116.969H149.495V60.5573H160.165V65.5202C161.158 63.8659 162.757 62.4873 164.962 61.3845C167.168 60.2265 169.732 59.6474 172.655 59.6474C178.445 59.6474 183.022 61.6326 186.386 65.603C189.75 69.5181 191.431 74.5914 191.431 80.8226C191.431 87.0538 189.639 92.1822 186.055 96.2077C182.526 100.233 177.921 102.246 172.241 102.246C166.837 102.246 162.922 100.592 160.496 97.283V116.969ZM177.701 89.3423C179.631 87.2468 180.596 84.4345 180.596 80.9053C180.596 77.3761 179.631 74.5914 177.701 72.551C175.826 70.5107 173.427 69.4906 170.504 69.4906C167.582 69.4906 165.155 70.5383 163.225 72.6338C161.295 74.6741 160.33 77.4313 160.33 80.9053C160.33 84.3794 161.295 87.1641 163.225 89.2596C165.155 91.355 167.582 92.4027 170.504 92.4027C173.427 92.4027 175.826 91.3826 177.701 89.3423ZM211.06 89.425C213.1 91.4653 215.554 92.4855 218.422 92.4855C221.289 92.4855 223.716 91.4653 225.701 89.425C227.741 87.3847 228.761 84.5448 228.761 80.9053C228.761 77.2658 227.741 74.4259 225.701 72.3856C223.716 70.3453 221.289 69.3251 218.422 69.3251C215.554 69.3251 213.1 70.3453 211.06 72.3856C209.075 74.4259 208.082 77.2658 208.082 80.9053C208.082 84.5448 209.075 87.3847 211.06 89.425ZM203.119 65.4375C207.2 61.3569 212.301 59.3166 218.422 59.3166C224.543 59.3166 229.616 61.3569 233.641 65.4375C237.722 69.5181 239.762 74.6741 239.762 80.9053C239.762 87.1365 237.722 92.2925 233.641 96.3731C229.616 100.454 224.543 102.494 218.422 102.494C212.301 102.494 207.2 100.454 203.119 96.3731C199.094 92.2925 197.081 87.1365 197.081 80.9053C197.081 74.6741 199.094 69.5181 203.119 65.4375ZM273.261 60.3919V71.4757C272.158 71.2552 271.055 71.1449 269.952 71.1449C266.809 71.1449 264.272 72.0548 262.342 73.8745C260.412 75.6391 259.447 78.5617 259.447 82.6423V101.253H248.446V60.5573H259.117V66.5955C261.102 62.3495 264.962 60.2265 270.697 60.2265C271.303 60.2265 272.158 60.2816 273.261 60.3919ZM296.18 48.3981V60.5573H304.369V70.3177H296.18V87.3571C296.18 89.0666 296.566 90.2797 297.338 90.9966C298.11 91.7135 299.323 92.0719 300.978 92.0719C302.467 92.0719 303.597 91.9616 304.369 91.741V100.84C302.77 101.501 300.702 101.832 298.165 101.832C294.195 101.832 291.052 100.729 288.736 98.5237C286.42 96.2628 285.262 93.1748 285.262 89.2596V70.3177H277.9V60.5573H279.968C282.008 60.5573 283.552 59.9783 284.6 58.8203C285.703 57.6071 286.254 56.0355 286.254 54.1055V48.3981H296.18ZM340.591 101.253C340.37 100.15 340.26 98.6891 340.26 96.8694C339.212 98.6891 337.64 100.068 335.545 101.005C333.505 101.887 331.326 102.329 329.01 102.329C324.213 102.329 320.436 100.812 317.678 97.7792C314.921 94.6912 313.543 90.8587 313.543 86.2818V60.5573H324.544V84.0485C324.544 86.4748 325.178 88.46 326.446 90.004C327.715 91.4929 329.562 92.2373 331.988 92.2373C334.359 92.2373 336.234 91.5204 337.613 90.0867C338.991 88.5978 339.681 86.6402 339.681 84.2139V60.5573H350.682V93.8916C350.682 96.4834 350.82 98.9373 351.095 101.253H340.591ZM373.423 77.8448V101.253H362.422V60.5573H373.093V65.603C374.251 63.6178 375.905 62.1013 378.055 61.0536C380.206 60.0059 382.467 59.482 384.838 59.482C389.636 59.482 393.275 60.9985 395.757 64.0314C398.293 67.0091 399.561 70.8692 399.561 75.6115V101.253H388.56V77.514C388.56 75.0877 387.926 73.1301 386.658 71.6412C385.445 70.1523 383.57 69.4079 381.033 69.4079C378.717 69.4079 376.87 70.2074 375.491 71.8066C374.113 73.4058 373.423 75.4185 373.423 77.8448ZM421.728 101.253H410.727V60.5573H421.728V101.253ZM409.403 47.2401C409.403 45.3652 410.065 43.7661 411.388 42.4426C412.712 41.064 414.311 40.3748 416.186 40.3748C418.061 40.3748 419.66 41.0365 420.983 42.3599C422.307 43.6834 422.969 45.3101 422.969 47.2401C422.969 49.0599 422.307 50.6315 420.983 51.9549C419.66 53.2784 418.061 53.9401 416.186 53.9401C414.311 53.9401 412.712 53.2784 411.388 51.9549C410.065 50.6315 409.403 49.0599 409.403 47.2401ZM447.071 48.3981V60.5573H455.26V70.3177H447.071V87.3571C447.071 89.0666 447.457 90.2797 448.229 90.9966C449.001 91.7135 450.214 92.0719 451.869 92.0719C453.358 92.0719 454.488 91.9616 455.26 91.741V100.84C453.661 101.501 451.593 101.832 449.056 101.832C445.086 101.832 441.943 100.729 439.627 98.5237C437.311 96.2628 436.153 93.1748 436.153 89.2596V70.3177H428.791V60.5573H430.859C432.899 60.5573 434.443 59.9783 435.491 58.8203C436.594 57.6071 437.145 56.0355 437.145 54.1055V48.3981H447.071ZM479.555 117.3H467.892L477.487 96.1249L460.2 60.5573H472.524L483.36 84.3794L493.368 60.5573H505.114L479.555 117.3Z" fill="black"/>
</g>
<path d="M45.5134 56.2435C41.8739 59.6073 40.0542 64.4048 40.0542 70.636C40.0542 76.8673 41.8739 81.6923 45.5134 85.1112C49.1529 88.475 53.4265 90.1569 58.3343 90.1569C63.2972 90.1569 67.5984 88.475 71.2379 85.1112C74.8774 81.6923 76.6971 76.8673 76.6971 70.636C76.6971 64.4048 74.8774 59.6073 71.2379 56.2435C67.5984 52.8246 63.2972 51.1152 58.3343 51.1152C53.4265 51.1152 49.1529 52.8246 45.5134 56.2435ZM28.2259 70.7187C28.2259 61.5649 31.1761 54.1757 37.0765 48.551C42.9768 42.9264 50.0628 40.114 58.3343 40.114C66.661 40.114 73.7745 42.9264 79.6749 48.551C85.5753 54.1757 88.5254 61.5649 88.5254 70.7187C88.5254 79.8174 85.5753 87.1791 79.6749 92.8038C73.7745 98.4284 66.661 101.241 58.3343 101.241C50.0628 101.241 42.9768 98.4284 37.0765 92.8038C31.1761 87.1791 28.2259 79.8174 28.2259 70.7187ZM108.596 115.716H97.5944V59.304H108.265V64.2669C109.257 62.6126 110.856 61.234 113.062 60.1312C115.268 58.9732 117.832 58.3941 120.755 58.3941C126.545 58.3941 131.122 60.3793 134.485 64.3497C137.849 68.2649 139.531 73.3381 139.531 79.5693C139.531 85.8005 137.739 90.9289 134.155 94.9544C130.625 98.9798 126.021 100.993 120.341 100.993C114.937 100.993 111.022 99.3383 108.596 96.0297V115.716ZM125.8 88.089C127.73 85.9935 128.695 83.1812 128.695 79.652C128.695 76.1228 127.73 73.3381 125.8 71.2978C123.925 69.2574 121.527 68.2373 118.604 68.2373C115.682 68.2373 113.255 69.285 111.325 71.3805C109.395 73.4208 108.43 76.178 108.43 79.652C108.43 83.1261 109.395 85.9108 111.325 88.0063C113.255 90.1017 115.682 91.1495 118.604 91.1495C121.527 91.1495 123.925 90.1293 125.8 88.089ZM159.243 115.716H148.241V59.304H158.912V64.2669C159.904 62.6126 161.503 61.234 163.709 60.1312C165.915 58.9732 168.479 58.3941 171.402 58.3941C177.192 58.3941 181.769 60.3793 185.133 64.3497C188.496 68.2649 190.178 73.3381 190.178 79.5693C190.178 85.8005 188.386 90.9289 184.802 94.9544C181.272 98.9798 176.668 100.993 170.988 100.993C165.584 100.993 161.669 99.3383 159.243 96.0297V115.716ZM176.447 88.089C178.377 85.9935 179.342 83.1812 179.342 79.652C179.342 76.1228 178.377 73.3381 176.447 71.2978C174.573 69.2574 172.174 68.2373 169.251 68.2373C166.329 68.2373 163.902 69.285 161.972 71.3805C160.042 73.4208 159.077 76.178 159.077 79.652C159.077 83.1261 160.042 85.9108 161.972 88.0063C163.902 90.1017 166.329 91.1495 169.251 91.1495C172.174 91.1495 174.573 90.1293 176.447 88.089ZM209.807 88.1717C211.847 90.212 214.301 91.2322 217.169 91.2322C220.036 91.2322 222.462 90.212 224.448 88.1717C226.488 86.1314 227.508 83.2915 227.508 79.652C227.508 76.0125 226.488 73.1726 224.448 71.1323C222.462 69.092 220.036 68.0719 217.169 68.0719C214.301 68.0719 211.847 69.092 209.807 71.1323C207.822 73.1726 206.829 76.0125 206.829 79.652C206.829 83.2915 207.822 86.1314 209.807 88.1717ZM201.866 64.1842C205.947 60.1036 211.048 58.0633 217.169 58.0633C223.29 58.0633 228.363 60.1036 232.388 64.1842C236.469 68.2649 238.509 73.4208 238.509 79.652C238.509 85.8832 236.469 91.0392 232.388 95.1198C228.363 99.2004 223.29 101.241 217.169 101.241C211.048 101.241 205.947 99.2004 201.866 95.1198C197.841 91.0392 195.828 85.8832 195.828 79.652C195.828 73.4208 197.841 68.2649 201.866 64.1842ZM272.008 59.1386V70.2225C270.905 70.0019 269.802 69.8916 268.699 69.8916C265.556 69.8916 263.019 70.8015 261.089 72.6212C259.159 74.3858 258.194 77.3084 258.194 81.389V100H247.193V59.304H257.863V65.3422C259.848 61.0962 263.708 58.9732 269.443 58.9732C270.05 58.9732 270.905 59.0283 272.008 59.1386ZM294.927 47.1448V59.304H303.116V69.0644H294.927V86.1038C294.927 87.8133 295.313 89.0264 296.085 89.7433C296.857 90.4602 298.07 90.8186 299.724 90.8186C301.213 90.8186 302.344 90.7083 303.116 90.4877V99.5864C301.517 100.248 299.449 100.579 296.912 100.579C292.942 100.579 289.799 99.4761 287.482 97.2704C285.166 95.0095 284.008 91.9215 284.008 88.0063V69.0644H276.647V59.304H278.715C280.755 59.304 282.299 58.725 283.347 57.567C284.45 56.3538 285.001 54.7822 285.001 52.8522V47.1448H294.927ZM339.337 100C339.117 98.8971 339.006 97.4358 339.006 95.6161C337.959 97.4358 336.387 98.8144 334.292 99.7519C332.251 100.634 330.073 101.075 327.757 101.075C322.96 101.075 319.182 99.5589 316.425 96.526C313.668 93.4379 312.289 89.6054 312.289 85.0285V59.304H323.291V82.7952C323.291 85.2215 323.925 87.2067 325.193 88.7507C326.461 90.2396 328.309 90.984 330.735 90.984C333.106 90.984 334.981 90.2672 336.36 88.8334C337.738 87.3445 338.427 85.3869 338.427 82.9606V59.304H349.429V92.6383C349.429 95.2301 349.566 97.684 349.842 100H339.337ZM372.17 76.5915V100H361.169V59.304H371.839V64.3497C372.997 62.3645 374.652 60.848 376.802 59.8003C378.953 58.7526 381.214 58.2287 383.585 58.2287C388.382 58.2287 392.022 59.7452 394.503 62.7781C397.04 65.7558 398.308 69.6159 398.308 74.3582V100H387.307V76.2607C387.307 73.8344 386.673 71.8768 385.405 70.3879C384.191 68.899 382.317 68.1546 379.78 68.1546C377.464 68.1546 375.617 68.9541 374.238 70.5533C372.859 72.1525 372.17 74.1652 372.17 76.5915ZM420.475 100H409.474V59.304H420.475V100ZM408.15 45.9868C408.15 44.112 408.812 42.5128 410.135 41.1893C411.459 39.8108 413.058 39.1215 414.933 39.1215C416.808 39.1215 418.407 39.7832 419.73 41.1066C421.054 42.4301 421.715 44.0568 421.715 45.9868C421.715 47.8066 421.054 49.3782 419.73 50.7016C418.407 52.0251 416.808 52.6868 414.933 52.6868C413.058 52.6868 411.459 52.0251 410.135 50.7016C408.812 49.3782 408.15 47.8066 408.15 45.9868ZM445.818 47.1448V59.304H454.007V69.0644H445.818V86.1038C445.818 87.8133 446.204 89.0264 446.976 89.7433C447.748 90.4602 448.961 90.8186 450.615 90.8186C452.104 90.8186 453.235 90.7083 454.007 90.4877V99.5864C452.408 100.248 450.34 100.579 447.803 100.579C443.833 100.579 440.69 99.4761 438.373 97.2704C436.057 95.0095 434.899 91.9215 434.899 88.0063V69.0644H427.538V59.304H429.606C431.646 59.304 433.19 58.725 434.238 57.567C435.341 56.3538 435.892 54.7822 435.892 52.8522V47.1448H445.818ZM478.302 116.047H466.639L476.234 94.8716L458.946 59.304H471.271L482.107 83.1261L492.115 59.304H503.861L478.302 116.047Z" fill="white"/>
<path d="M0.227997 28.5214H15.8612V12.3919H25.1253V28.5214H40.8413V37.5373H25.1253V53.7496H15.8612V37.5373H0.227997V28.5214Z" fill="white"/>
<defs>
<filter id="filter0_f_123_4368" x="14.44" y="25.3356" width="505.713" height="107.004" filterUnits="userSpaceOnUse" color-interpolation-filters="sRGB">
<feFlood flood-opacity="0" result="BackgroundImageFix"/>
<feBlend mode="normal" in="SourceGraphic" in2="BackgroundImageFix" result="shape"/>
<feGaussianBlur stdDeviation="7.51958" result="effect1_foregroundBlur_123_4368"/>
</filter>
</defs>
</svg>
