<svg width="88" height="50" viewBox="0 0 88 50" fill="none" xmlns="http://www.w3.org/2000/svg">
<path d="M0 0L88 0V38C88 44.6274 82.6274 50 76 50H12C5.37258 50 0 44.6274 0 38L0 0Z" fill="white"/>
<path d="M26.2772 34.2242H16V33.1091H26.2772V34.2242ZM72.5 33.1091H39.3306V34.2242H72.5V33.1091ZM16 31.4121V23.3636H18.6789V25.2545C18.9711 24.5758 19.3121 24.0424 19.7991 23.703C20.2862 23.3636 20.8707 23.1697 21.5526 23.1697C21.65 23.1697 21.7961 23.1697 21.8935 23.1697C21.9909 23.1697 22.1371 23.1697 22.2345 23.2182L21.9909 25.7879C21.6987 25.6909 21.3578 25.6424 21.0168 25.6424C20.3349 25.6424 19.7991 25.8364 19.4095 26.2727C19.0198 26.7091 18.825 27.2909 18.825 28.0667V31.4121H16ZM23.2573 20.8424C23.2573 20.4061 23.4034 20.0182 23.6957 19.7758C23.9879 19.4848 24.3776 19.3394 24.8159 19.3394C25.2543 19.3394 25.644 19.4848 25.9362 19.7758C26.2284 20.0667 26.3746 20.4545 26.3746 20.8909C26.3746 21.3273 26.2284 21.7152 25.9362 22.0061C25.644 22.297 25.2543 22.4909 24.8159 22.4424C24.3776 22.4424 24.0366 22.297 23.7444 21.9576C23.3547 21.6182 23.2086 21.2788 23.2573 20.8424ZM23.3547 31.4121V23.3636H26.2284V31.4606H23.3547V31.4121ZM37.0901 23.3636V31.4606C37.0901 32.6727 36.7004 33.5455 35.9698 34.1758C35.2392 34.8061 34.0703 35 32.5603 35C31.294 35 30.3198 34.7576 29.6379 34.3212C28.9073 33.8364 28.5664 33.2061 28.5177 32.3818H31.4401C31.4888 32.6242 31.6349 32.8182 31.8784 32.9636C32.122 33.1091 32.4142 33.1576 32.8039 33.1576C33.3884 33.1576 33.8267 33.0121 34.0703 32.7212C34.3138 32.4303 34.4112 31.8 34.4112 30.8788V30.1515C34.119 30.6364 33.7293 31.0242 33.2909 31.2667C32.8526 31.5091 32.2681 31.6061 31.5862 31.6061C30.5147 31.6061 29.6866 31.2182 29.0534 30.4424C28.4203 29.6667 28.0793 28.6485 28.0793 27.3394C28.0793 26.0303 28.4203 25.0606 29.1022 24.2364C29.7841 23.4606 30.6608 23.1212 31.8297 23.1212C32.4142 23.1212 32.95 23.2667 33.3884 23.5091C33.8267 23.7515 34.2164 24.1394 34.5086 24.6727V23.4606L37.0901 23.3636ZM34.606 27.4364C34.606 26.8061 34.4599 26.3212 34.119 25.9818C33.778 25.6424 33.3397 25.4485 32.7552 25.4485C32.1707 25.4485 31.6836 25.6424 31.3914 25.9818C31.0504 26.3212 30.9043 26.8061 30.9043 27.4364C30.9043 28.0667 31.0504 28.5515 31.3914 28.8909C31.7323 29.2303 32.1707 29.4242 32.7552 29.4242C33.3397 29.4242 33.778 29.2303 34.119 28.8909C34.4112 28.503 34.606 28.0182 34.606 27.4364ZM39.3306 31.4121V19H42.1556V31.3636H39.3306V31.4121ZM53.0659 23.3636V31.4606H50.4845V30.1515C50.0948 30.6848 49.7052 31.1212 49.2181 31.3636C48.731 31.6061 48.1953 31.7515 47.5621 31.7515C46.4905 31.7515 45.6138 31.3636 44.9806 30.5879C44.3474 29.8121 44.0065 28.7455 44.0065 27.3879C44.0065 26.0303 44.3474 25.0606 45.0293 24.2364C45.7112 23.4121 46.5879 23.0727 47.7569 23.0727C48.3414 23.0727 48.8772 23.2182 49.3155 23.4606C49.7539 23.703 50.1435 24.0909 50.4358 24.6242V23.3636H53.0659ZM50.5819 27.4364C50.5819 26.8061 50.4358 26.3212 50.0948 25.9333C49.7539 25.5939 49.3155 25.4 48.731 25.4C48.1465 25.4 47.7082 25.5939 47.3672 25.9333C47.0263 26.2727 46.8802 26.8061 46.8802 27.4364C46.8802 28.0667 47.0263 28.5515 47.3672 28.8909C47.7082 29.2303 48.1465 29.4242 48.731 29.4242C49.3155 29.4242 49.7539 29.2303 50.0948 28.8909C50.3384 28.503 50.5819 28.0182 50.5819 27.4364ZM55.209 19H57.8879V23.3152C57.8879 23.6545 57.8879 23.9455 57.8879 24.1394C57.8879 24.3818 57.8392 24.5758 57.8392 24.7212C58.1802 24.1394 58.5211 23.7515 58.9595 23.5091C59.3978 23.2667 59.9336 23.1697 60.6155 23.1697C61.6871 23.1697 62.5638 23.5576 63.197 24.3333C63.8789 25.1091 64.2198 26.1273 64.2198 27.4848C64.2198 28.8424 63.8789 29.8606 63.197 30.6848C62.5151 31.5091 61.6384 31.8485 60.5181 31.8485C59.9823 31.8485 59.4465 31.703 59.0082 31.4606C58.5698 31.2182 58.1315 30.7333 57.7905 30.2485V31.5576H55.209V19ZM57.7418 27.4364C57.7418 28.0667 57.8879 28.5515 58.2289 28.8909C58.5698 29.2303 59.0082 29.4242 59.5927 29.4242C60.1772 29.4242 60.6155 29.2303 60.9565 28.8909C61.2974 28.5515 61.4435 28.0667 61.4435 27.4364C61.4435 26.8061 61.2974 26.3212 60.9565 25.9818C60.6155 25.6424 60.1772 25.4485 59.5927 25.4485C59.0082 25.4485 58.5698 25.6424 58.2289 25.9818C57.9366 26.2727 57.7418 26.7576 57.7418 27.4364ZM65.2914 30.7818L65.8759 28.6485C66.2655 28.9879 66.7526 29.2788 67.2396 29.4727C67.7267 29.6667 68.2138 29.7636 68.7496 29.7636C69.0905 29.7636 69.3828 29.7152 69.5776 29.6182C69.7724 29.5212 69.8698 29.3273 69.8698 29.1333C69.8698 28.7939 69.4802 28.503 68.7496 28.3576C68.506 28.3091 68.3112 28.2606 68.1651 28.2121C67.3371 27.9697 66.7039 27.6788 66.3142 27.2909C65.9246 26.903 65.7297 26.4182 65.7297 25.8364C65.7297 25.0606 66.022 24.4303 66.6065 23.9939C67.1909 23.5091 67.9703 23.3152 68.9931 23.3152C69.5289 23.3152 70.0647 23.3636 70.5517 23.5091C71.1362 23.6545 71.672 23.8 72.2078 24.0424L71.6233 25.9818C71.2823 25.7394 70.8927 25.5455 70.4543 25.4C70.0647 25.2545 69.675 25.2061 69.2853 25.2061C68.9444 25.2061 68.7009 25.2545 68.5547 25.3515C68.4086 25.4485 68.3112 25.5939 68.3112 25.7879C68.3112 26.0788 68.7009 26.3212 69.4315 26.5152C69.5776 26.5636 69.7237 26.6121 69.8211 26.6121C70.7953 26.903 71.4771 27.2424 71.8668 27.5818C72.2565 27.9212 72.4513 28.4545 72.4513 29.1333C72.4513 29.9576 72.159 30.6364 71.5259 31.1212C70.8927 31.6061 70.0647 31.897 69.0418 31.897C68.3599 31.897 67.7267 31.8 67.0935 31.6545C66.3142 31.3636 65.8271 31.0727 65.2914 30.7818Z" fill="black"/>
<path d="M16.0723 40.5L16.5641 37.5377H17.7328C17.9565 37.5377 18.1402 37.5806 18.2839 37.6664C18.4286 37.7513 18.5298 37.8694 18.5877 38.0208C18.6465 38.1712 18.66 38.3448 18.6282 38.5415C18.5954 38.7392 18.524 38.9133 18.4141 39.0637C18.3051 39.2132 18.1634 39.3298 17.9889 39.4137C17.8143 39.4976 17.6128 39.5396 17.3842 39.5396H16.6393L16.7218 39.0377H17.3654C17.4869 39.0377 17.5906 39.0169 17.6764 38.9755C17.7632 38.933 17.8322 38.8747 17.8833 38.8004C17.9344 38.7252 17.9676 38.6389 17.9831 38.5415C17.9995 38.4422 17.9942 38.3559 17.9672 38.2826C17.9402 38.2093 17.8905 38.1524 17.8182 38.1119C17.7468 38.0705 17.6509 38.0497 17.5303 38.0497H17.108L16.6986 40.5H16.0723ZM19.6282 40.5434C19.4015 40.5434 19.214 40.4952 19.0655 40.3987C18.917 40.3014 18.8124 40.1664 18.7516 39.9937C18.6918 39.8202 18.6807 39.6182 18.7183 39.3877C18.755 39.1601 18.8312 38.961 18.9469 38.7903C19.0626 38.6196 19.2097 38.487 19.388 38.3925C19.5664 38.2971 19.7675 38.2493 19.9912 38.2493C20.2169 38.2493 20.4039 38.298 20.5524 38.3954C20.7009 38.4919 20.8056 38.6269 20.8663 38.8004C20.9271 38.974 20.9386 39.176 20.901 39.4065C20.8634 39.6331 20.7863 39.8317 20.6696 40.0024C20.5529 40.1731 20.4059 40.3062 20.2284 40.4016C20.051 40.4961 19.8509 40.5434 19.6282 40.5434ZM19.6889 40.0661C19.7931 40.0661 19.8851 40.0367 19.9652 39.9778C20.0462 39.9181 20.1132 39.837 20.1662 39.7348C20.2202 39.6317 20.2578 39.515 20.2791 39.3848C20.3003 39.2565 20.3017 39.1428 20.2834 39.0434C20.2651 38.9432 20.2265 38.8641 20.1677 38.8062C20.1098 38.7484 20.0303 38.7194 19.929 38.7194C19.8249 38.7194 19.7323 38.7493 19.6513 38.8091C19.5703 38.8679 19.5033 38.9489 19.4502 39.0521C19.3972 39.1553 19.3601 39.2725 19.3389 39.4036C19.3186 39.5309 19.3172 39.6447 19.3345 39.745C19.3519 39.8443 19.39 39.9229 19.4488 39.9807C19.5076 40.0376 19.5877 40.0661 19.6889 40.0661ZM21.4613 40.5L21.227 38.2783H21.8504L21.9458 39.771H21.9661L22.5736 38.2783H23.1854L23.3012 39.7623H23.32L23.9072 38.2783H24.5292L23.5557 40.5H22.9034L22.753 39.1027H22.7255L22.1122 40.5H21.4613ZM25.3979 40.5434C25.1703 40.5434 24.9818 40.4971 24.8323 40.4045C24.6829 40.311 24.5778 40.1789 24.517 40.0082C24.4572 39.8366 24.4471 39.6336 24.4866 39.3993C24.5252 39.1707 24.6028 38.9702 24.7195 38.7975C24.8372 38.6249 24.9847 38.4904 25.1621 38.394C25.3396 38.2976 25.5372 38.2493 25.7552 38.2493C25.9017 38.2493 26.0343 38.273 26.1529 38.3202C26.2725 38.3665 26.3718 38.4369 26.4509 38.5314C26.53 38.6249 26.584 38.7421 26.6129 38.8829C26.6428 39.0237 26.6423 39.1886 26.6115 39.3776L26.584 39.5468H24.7094L24.7687 39.1649H26.0647C26.0792 39.0762 26.0734 38.9976 26.0473 38.9292C26.0213 38.8607 25.9779 38.8072 25.9172 38.7686C25.8564 38.7291 25.7817 38.7093 25.693 38.7093C25.6023 38.7093 25.5175 38.7315 25.4384 38.7758C25.3593 38.8202 25.2928 38.8785 25.2388 38.9509C25.1857 39.0222 25.1515 39.0998 25.1361 39.1837L25.0681 39.5627C25.0488 39.6794 25.0527 39.7763 25.0797 39.8534C25.1076 39.9306 25.1559 39.9884 25.2243 40.027C25.2928 40.0646 25.3796 40.0834 25.4847 40.0834C25.5531 40.0834 25.6173 40.0738 25.6771 40.0545C25.7378 40.0352 25.7918 40.0068 25.8391 39.9692C25.8863 39.9306 25.9249 39.8829 25.9548 39.826L26.5174 39.8636C26.4654 40.0005 26.3863 40.1201 26.2802 40.2223C26.1741 40.3235 26.0464 40.4026 25.8969 40.4595C25.7484 40.5154 25.5821 40.5434 25.3979 40.5434ZM26.7888 40.5L27.1591 38.2783H27.7564L27.6913 38.6659H27.7145C27.7781 38.528 27.8635 38.4239 27.9705 38.3535C28.0785 38.2821 28.1947 38.2465 28.3191 38.2465C28.35 38.2465 28.3823 38.2484 28.416 38.2522C28.4507 38.2551 28.4816 38.26 28.5086 38.2667L28.416 38.8149C28.389 38.8053 28.3504 38.7975 28.3003 38.7918C28.2511 38.785 28.2044 38.7816 28.16 38.7816C28.0703 38.7816 27.9869 38.8014 27.9098 38.8409C27.8326 38.8795 27.7675 38.9335 27.7145 39.0029C27.6624 39.0724 27.6282 39.1524 27.6118 39.243L27.405 40.5H26.7888ZM29.318 40.5434C29.0904 40.5434 28.9019 40.4971 28.7524 40.4045C28.603 40.311 28.4979 40.1789 28.4371 40.0082C28.3773 39.8366 28.3672 39.6336 28.4067 39.3993C28.4453 39.1707 28.5229 38.9702 28.6396 38.7975C28.7573 38.6249 28.9048 38.4904 29.0822 38.394C29.2597 38.2976 29.4573 38.2493 29.6753 38.2493C29.8218 38.2493 29.9544 38.273 30.073 38.3202C30.1926 38.3665 30.2919 38.4369 30.371 38.5314C30.4501 38.6249 30.5041 38.7421 30.533 38.8829C30.5629 39.0237 30.5624 39.1886 30.5316 39.3776L30.5041 39.5468H28.6295L28.6888 39.1649H29.9848C29.9993 39.0762 29.9935 38.9976 29.9674 38.9292C29.9414 38.8607 29.898 38.8072 29.8373 38.7686C29.7765 38.7291 29.7018 38.7093 29.6131 38.7093C29.5224 38.7093 29.4376 38.7315 29.3585 38.7758C29.2794 38.8202 29.2129 38.8785 29.1589 38.9509C29.1059 39.0222 29.0716 39.0998 29.0562 39.1837L28.9882 39.5627C28.9689 39.6794 28.9728 39.7763 28.9998 39.8534C29.0277 39.9306 29.076 39.9884 29.1444 40.027C29.2129 40.0646 29.2997 40.0834 29.4048 40.0834C29.4732 40.0834 29.5374 40.0738 29.5972 40.0545C29.6579 40.0352 29.7119 40.0068 29.7592 39.9692C29.8064 39.9306 29.845 39.8829 29.8749 39.826L30.4375 39.8636C30.3855 40.0005 30.3064 40.1201 30.2003 40.2223C30.0943 40.3235 29.9665 40.4026 29.817 40.4595C29.6685 40.5154 29.5022 40.5434 29.318 40.5434ZM31.5247 40.5362C31.355 40.5362 31.2089 40.4928 31.0864 40.406C30.9649 40.3182 30.8781 40.1895 30.826 40.0198C30.7749 39.8491 30.7701 39.6399 30.8116 39.392C30.854 39.1375 30.9302 38.9258 31.0401 38.757C31.15 38.5873 31.2802 38.4605 31.4307 38.3766C31.5811 38.2918 31.7378 38.2493 31.9007 38.2493C32.0242 38.2493 32.124 38.2706 32.2002 38.313C32.2773 38.3545 32.3366 38.4065 32.3781 38.4692C32.4195 38.5309 32.4485 38.5917 32.4649 38.6515H32.4837L32.6702 37.5377H33.285L32.7932 40.5H32.1857L32.245 40.1442H32.219C32.1804 40.2059 32.1293 40.2671 32.0656 40.3279C32.003 40.3877 31.9268 40.4373 31.8371 40.4769C31.7484 40.5164 31.6442 40.5362 31.5247 40.5362ZM31.7966 40.0458C31.895 40.0458 31.9837 40.0188 32.0627 39.9648C32.1418 39.9099 32.2084 39.8332 32.2624 39.7348C32.3164 39.6365 32.354 39.5212 32.3752 39.3891C32.3974 39.257 32.3978 39.1423 32.3766 39.0449C32.3554 38.9475 32.3139 38.8723 32.2522 38.8192C32.1915 38.7662 32.111 38.7397 32.0107 38.7397C31.9094 38.7397 31.8197 38.7672 31.7416 38.8221C31.6645 38.8771 31.6004 38.9533 31.5493 39.0507C31.4991 39.1481 31.4634 39.2609 31.4422 39.3891C31.421 39.5184 31.4196 39.6326 31.4379 39.7319C31.4562 39.8303 31.4953 39.9074 31.555 39.9634C31.6148 40.0183 31.6953 40.0458 31.7966 40.0458ZM34.1712 40.5L34.663 37.5377H35.2792L35.0969 38.6515H35.1143C35.1509 38.5917 35.2001 38.5309 35.2618 38.4692C35.3245 38.4065 35.4011 38.3545 35.4918 38.313C35.5824 38.2706 35.6899 38.2493 35.8143 38.2493C35.9763 38.2493 36.1186 38.2918 36.241 38.3766C36.3635 38.4605 36.4517 38.5873 36.5057 38.757C36.5597 38.9258 36.5655 39.1375 36.5231 39.392C36.4826 39.6399 36.4079 39.8491 36.2989 40.0198C36.1909 40.1895 36.0612 40.3182 35.9098 40.406C35.7594 40.4928 35.5998 40.5362 35.431 40.5362C35.3115 40.5362 35.2131 40.5164 35.136 40.4769C35.0598 40.4373 35.0005 40.3877 34.958 40.3279C34.9156 40.2671 34.8852 40.2059 34.8669 40.1442H34.8365L34.7787 40.5H34.1712ZM34.9595 39.3891C34.9383 39.5212 34.9378 39.6365 34.958 39.7348C34.9793 39.8332 35.0198 39.9099 35.0795 39.9648C35.1403 40.0188 35.2199 40.0458 35.3182 40.0458C35.4195 40.0458 35.5091 40.0183 35.5872 39.9634C35.6663 39.9074 35.7319 39.8303 35.784 39.7319C35.836 39.6326 35.8727 39.5184 35.8939 39.3891C35.9141 39.2609 35.9146 39.1481 35.8953 39.0507C35.8761 38.9533 35.8365 38.8771 35.7767 38.8221C35.7169 38.7672 35.6359 38.7397 35.5337 38.7397C35.4344 38.7397 35.3452 38.7662 35.2661 38.8192C35.188 38.8723 35.1225 38.9475 35.0694 39.0449C35.0174 39.1423 34.9807 39.257 34.9595 39.3891ZM36.8812 41.3331C36.8021 41.3331 36.7298 41.3269 36.6643 41.3143C36.5987 41.3028 36.5447 41.2878 36.5022 41.2695L36.7192 40.8095C36.7877 40.8317 36.8499 40.8433 36.9058 40.8443C36.9627 40.8452 37.0148 40.8308 37.062 40.8009C37.1093 40.771 37.1527 40.7218 37.1922 40.6533L37.2472 40.5593L36.8306 38.2783H37.4555L37.6435 39.9127H37.6666L38.4029 38.2783H39.0784L37.8069 40.7401C37.7443 40.8606 37.67 40.9653 37.5842 41.054C37.4993 41.1427 37.3986 41.2112 37.2819 41.2594C37.1662 41.3086 37.0326 41.3331 36.8812 41.3331Z" fill="black"/>
<path d="M46.0193 41.6433H41.8851V40.7628L44.1827 37.5187H41.9396V36.3676H45.9612V37.2444L43.6636 40.4921H46.0193V41.6433Z" fill="black"/>
<path d="M46.7815 41.6433V36.3676H48.2224V41.6433H46.7815Z" fill="black"/>
<path d="M49.373 41.6433V36.3676H50.8067V40.4921H52.8502V41.6433H49.373Z" fill="black"/>
<path d="M53.6995 41.6433V36.3676H55.1405V41.6433H53.6995Z" fill="black"/>
<path d="M58.654 37.4609C58.3128 37.4609 58.0466 37.6005 57.8555 37.8795C57.6643 38.1562 57.5687 38.5387 57.5687 39.0271C57.5687 40.0423 57.9571 40.5499 58.7338 40.5499C58.9685 40.5499 59.196 40.5174 59.4162 40.4524C59.6364 40.3875 59.8578 40.3093 60.0804 40.2179V41.4231C59.6376 41.618 59.1367 41.7154 58.5778 41.7154C57.7768 41.7154 57.1622 41.4845 56.7339 41.0226C56.308 40.5607 56.0951 39.8931 56.0951 39.0198C56.0951 38.4737 56.1979 37.9938 56.4036 37.58C56.6117 37.1662 56.9093 36.8487 57.2965 36.6274C57.6861 36.4036 58.1434 36.2918 58.6685 36.2918C59.242 36.2918 59.79 36.4157 60.3127 36.6635L59.8735 37.7857C59.6775 37.6943 59.4815 37.6173 59.2855 37.5548C59.0895 37.4922 58.879 37.4609 58.654 37.4609Z" fill="black"/>
<path d="M66.0838 38.9982C66.0838 39.8859 65.8648 40.5607 65.4268 41.0226C64.9889 41.4845 64.3476 41.7154 63.5031 41.7154C62.6708 41.7154 62.0319 41.4833 61.5867 41.019C61.1439 40.5547 60.9225 39.8787 60.9225 38.991C60.9225 38.1129 61.1427 37.4429 61.5831 36.981C62.0259 36.5167 62.6683 36.2846 63.5104 36.2846C64.3549 36.2846 64.9949 36.5143 65.4305 36.9738C65.866 37.4333 66.0838 38.1081 66.0838 38.9982ZM62.4324 38.9982C62.4324 40.0182 62.7893 40.5282 63.5031 40.5282C63.8661 40.5282 64.1347 40.4043 64.3089 40.1565C64.4856 39.9088 64.5739 39.5226 64.5739 38.9982C64.5739 38.4713 64.4844 38.0828 64.3053 37.8326C64.1287 37.58 63.8637 37.4537 63.5104 37.4537C62.7917 37.4537 62.4324 37.9686 62.4324 38.9982Z" fill="black"/>
<path d="M72.0945 41.6433H70.2143L68.2761 37.9265H68.2434C68.2894 38.511 68.3124 38.9573 68.3124 39.2652V41.6433H67.042V36.3676H68.9149L70.8459 40.0339H70.8676C70.8338 39.5022 70.8168 39.0752 70.8168 38.7528V36.3676H72.0945V41.6433Z" fill="black"/>
</svg>
