<svg width="96" height="56" viewBox="0 0 96 56" fill="none" xmlns="http://www.w3.org/2000/svg">
<g filter="url(#filter0_d_123_4291)">
<path d="M2 0L90 0V38C90 44.6274 84.6274 50 78 50H14C7.37258 50 2 44.6274 2 38V0Z" fill="white"/>
<path d="M28.2772 34.2242H18V33.1091H28.2772V34.2242ZM74.5 33.1091H41.3306V34.2242H74.5V33.1091ZM18 31.4121V23.3636H20.6789V25.2545C20.9711 24.5758 21.3121 24.0424 21.7991 23.703C22.2862 23.3636 22.8707 23.1697 23.5526 23.1697C23.65 23.1697 23.7961 23.1697 23.8935 23.1697C23.9909 23.1697 24.1371 23.1697 24.2345 23.2182L23.9909 25.7879C23.6987 25.6909 23.3578 25.6424 23.0168 25.6424C22.3349 25.6424 21.7991 25.8364 21.4095 26.2727C21.0198 26.7091 20.825 27.2909 20.825 28.0667V31.4121H18ZM25.2573 20.8424C25.2573 20.4061 25.4034 20.0182 25.6957 19.7758C25.9879 19.4848 26.3776 19.3394 26.8159 19.3394C27.2543 19.3394 27.644 19.4848 27.9362 19.7758C28.2284 20.0667 28.3746 20.4545 28.3746 20.8909C28.3746 21.3273 28.2284 21.7152 27.9362 22.0061C27.644 22.297 27.2543 22.4909 26.8159 22.4424C26.3776 22.4424 26.0366 22.297 25.7444 21.9576C25.3547 21.6182 25.2086 21.2788 25.2573 20.8424ZM25.3547 31.4121V23.3636H28.2284V31.4606H25.3547V31.4121ZM39.0901 23.3636V31.4606C39.0901 32.6727 38.7004 33.5455 37.9698 34.1758C37.2392 34.8061 36.0703 35 34.5603 35C33.294 35 32.3198 34.7576 31.6379 34.3212C30.9073 33.8364 30.5664 33.2061 30.5177 32.3818H33.4401C33.4888 32.6242 33.6349 32.8182 33.8784 32.9636C34.122 33.1091 34.4142 33.1576 34.8039 33.1576C35.3884 33.1576 35.8267 33.0121 36.0703 32.7212C36.3138 32.4303 36.4112 31.8 36.4112 30.8788V30.1515C36.119 30.6364 35.7293 31.0242 35.2909 31.2667C34.8526 31.5091 34.2681 31.6061 33.5862 31.6061C32.5147 31.6061 31.6866 31.2182 31.0534 30.4424C30.4203 29.6667 30.0793 28.6485 30.0793 27.3394C30.0793 26.0303 30.4203 25.0606 31.1022 24.2364C31.784 23.4606 32.6608 23.1212 33.8297 23.1212C34.4142 23.1212 34.95 23.2667 35.3884 23.5091C35.8267 23.7515 36.2164 24.1394 36.5086 24.6727V23.4606L39.0901 23.3636ZM36.606 27.4364C36.606 26.8061 36.4599 26.3212 36.119 25.9818C35.778 25.6424 35.3397 25.4485 34.7552 25.4485C34.1707 25.4485 33.6836 25.6424 33.3914 25.9818C33.0504 26.3212 32.9043 26.8061 32.9043 27.4364C32.9043 28.0667 33.0504 28.5515 33.3914 28.8909C33.7323 29.2303 34.1707 29.4242 34.7552 29.4242C35.3397 29.4242 35.778 29.2303 36.119 28.8909C36.4112 28.503 36.606 28.0182 36.606 27.4364ZM41.3306 31.4121V19H44.1556V31.3636H41.3306V31.4121ZM55.0659 23.3636V31.4606H52.4845V30.1515C52.0948 30.6848 51.7052 31.1212 51.2181 31.3636C50.731 31.6061 50.1953 31.7515 49.5621 31.7515C48.4905 31.7515 47.6138 31.3636 46.9806 30.5879C46.3474 29.8121 46.0065 28.7455 46.0065 27.3879C46.0065 26.0303 46.3474 25.0606 47.0293 24.2364C47.7112 23.4121 48.5879 23.0727 49.7569 23.0727C50.3414 23.0727 50.8772 23.2182 51.3155 23.4606C51.7539 23.703 52.1435 24.0909 52.4358 24.6242V23.3636H55.0659ZM52.5819 27.4364C52.5819 26.8061 52.4358 26.3212 52.0948 25.9333C51.7539 25.5939 51.3155 25.4 50.731 25.4C50.1465 25.4 49.7082 25.5939 49.3672 25.9333C49.0263 26.2727 48.8802 26.8061 48.8802 27.4364C48.8802 28.0667 49.0263 28.5515 49.3672 28.8909C49.7082 29.2303 50.1465 29.4242 50.731 29.4242C51.3155 29.4242 51.7539 29.2303 52.0948 28.8909C52.3384 28.503 52.5819 28.0182 52.5819 27.4364ZM57.209 19H59.8879V23.3152C59.8879 23.6545 59.8879 23.9455 59.8879 24.1394C59.8879 24.3818 59.8392 24.5758 59.8392 24.7212C60.1802 24.1394 60.5211 23.7515 60.9595 23.5091C61.3978 23.2667 61.9336 23.1697 62.6155 23.1697C63.6871 23.1697 64.5638 23.5576 65.197 24.3333C65.8789 25.1091 66.2198 26.1273 66.2198 27.4848C66.2198 28.8424 65.8789 29.8606 65.197 30.6848C64.5151 31.5091 63.6384 31.8485 62.5181 31.8485C61.9823 31.8485 61.4465 31.703 61.0082 31.4606C60.5698 31.2182 60.1315 30.7333 59.7905 30.2485V31.5576H57.209V19ZM59.7418 27.4364C59.7418 28.0667 59.8879 28.5515 60.2289 28.8909C60.5698 29.2303 61.0082 29.4242 61.5927 29.4242C62.1772 29.4242 62.6155 29.2303 62.9565 28.8909C63.2974 28.5515 63.4435 28.0667 63.4435 27.4364C63.4435 26.8061 63.2974 26.3212 62.9565 25.9818C62.6155 25.6424 62.1772 25.4485 61.5927 25.4485C61.0082 25.4485 60.5698 25.6424 60.2289 25.9818C59.9366 26.2727 59.7418 26.7576 59.7418 27.4364ZM67.2914 30.7818L67.8759 28.6485C68.2655 28.9879 68.7526 29.2788 69.2397 29.4727C69.7267 29.6667 70.2138 29.7636 70.7496 29.7636C71.0905 29.7636 71.3828 29.7152 71.5776 29.6182C71.7724 29.5212 71.8698 29.3273 71.8698 29.1333C71.8698 28.7939 71.4802 28.503 70.7496 28.3576C70.506 28.3091 70.3112 28.2606 70.1651 28.2121C69.3371 27.9697 68.7039 27.6788 68.3142 27.2909C67.9246 26.903 67.7297 26.4182 67.7297 25.8364C67.7297 25.0606 68.022 24.4303 68.6065 23.9939C69.1909 23.5091 69.9703 23.3152 70.9931 23.3152C71.5289 23.3152 72.0647 23.3636 72.5517 23.5091C73.1362 23.6545 73.672 23.8 74.2078 24.0424L73.6233 25.9818C73.2823 25.7394 72.8927 25.5455 72.4543 25.4C72.0647 25.2545 71.675 25.2061 71.2853 25.2061C70.9444 25.2061 70.7009 25.2545 70.5547 25.3515C70.4086 25.4485 70.3112 25.5939 70.3112 25.7879C70.3112 26.0788 70.7009 26.3212 71.4315 26.5152C71.5776 26.5636 71.7237 26.6121 71.8211 26.6121C72.7953 26.903 73.4771 27.2424 73.8668 27.5818C74.2565 27.9212 74.4513 28.4545 74.4513 29.1333C74.4513 29.9576 74.159 30.6364 73.5259 31.1212C72.8927 31.6061 72.0647 31.897 71.0418 31.897C70.3599 31.897 69.7267 31.8 69.0935 31.6545C68.3142 31.3636 67.8271 31.0727 67.2914 30.7818Z" fill="black"/>
<path d="M18.0723 40.5L18.5641 37.5377H19.7328C19.9565 37.5377 20.1402 37.5806 20.2839 37.6664C20.4286 37.7513 20.5298 37.8694 20.5877 38.0208C20.6465 38.1712 20.66 38.3448 20.6282 38.5415C20.5954 38.7392 20.524 38.9133 20.4141 39.0637C20.3051 39.2132 20.1634 39.3298 19.9889 39.4137C19.8143 39.4976 19.6128 39.5396 19.3842 39.5396H18.6393L18.7218 39.0377H19.3654C19.4869 39.0377 19.5906 39.0169 19.6764 38.9755C19.7632 38.933 19.8322 38.8747 19.8833 38.8004C19.9344 38.7252 19.9676 38.6389 19.9831 38.5415C19.9995 38.4422 19.9942 38.3559 19.9672 38.2826C19.9402 38.2093 19.8905 38.1524 19.8182 38.1119C19.7468 38.0705 19.6509 38.0497 19.5303 38.0497H19.108L18.6986 40.5H18.0723ZM21.6282 40.5434C21.4015 40.5434 21.214 40.4952 21.0655 40.3987C20.917 40.3014 20.8124 40.1664 20.7516 39.9937C20.6918 39.8202 20.6807 39.6182 20.7183 39.3877C20.755 39.1601 20.8312 38.961 20.9469 38.7903C21.0626 38.6196 21.2097 38.487 21.388 38.3925C21.5664 38.2971 21.7675 38.2493 21.9912 38.2493C22.2169 38.2493 22.4039 38.298 22.5524 38.3954C22.7009 38.4919 22.8056 38.6269 22.8663 38.8004C22.9271 38.974 22.9386 39.176 22.901 39.4065C22.8634 39.6331 22.7863 39.8317 22.6696 40.0024C22.5529 40.1731 22.4059 40.3062 22.2284 40.4016C22.051 40.4961 21.8509 40.5434 21.6282 40.5434ZM21.6889 40.0661C21.7931 40.0661 21.8851 40.0367 21.9652 39.9778C22.0462 39.9181 22.1132 39.837 22.1662 39.7348C22.2202 39.6317 22.2578 39.515 22.2791 39.3848C22.3003 39.2565 22.3017 39.1428 22.2834 39.0434C22.2651 38.9432 22.2265 38.8641 22.1677 38.8062C22.1098 38.7484 22.0303 38.7194 21.929 38.7194C21.8249 38.7194 21.7323 38.7493 21.6513 38.8091C21.5703 38.8679 21.5033 38.9489 21.4502 39.0521C21.3972 39.1553 21.3601 39.2725 21.3389 39.4036C21.3186 39.5309 21.3172 39.6447 21.3345 39.745C21.3519 39.8443 21.39 39.9229 21.4488 39.9807C21.5076 40.0376 21.5877 40.0661 21.6889 40.0661ZM23.4613 40.5L23.227 38.2783H23.8504L23.9458 39.771H23.9661L24.5736 38.2783H25.1854L25.3012 39.7623H25.32L25.9072 38.2783H26.5292L25.5557 40.5H24.9034L24.753 39.1027H24.7255L24.1122 40.5H23.4613ZM27.3979 40.5434C27.1703 40.5434 26.9818 40.4971 26.8323 40.4045C26.6829 40.311 26.5778 40.1789 26.517 40.0082C26.4572 39.8366 26.4471 39.6336 26.4866 39.3993C26.5252 39.1707 26.6028 38.9702 26.7195 38.7975C26.8372 38.6249 26.9847 38.4904 27.1621 38.394C27.3396 38.2976 27.5372 38.2493 27.7552 38.2493C27.9017 38.2493 28.0343 38.273 28.1529 38.3202C28.2725 38.3665 28.3718 38.4369 28.4509 38.5314C28.53 38.6249 28.584 38.7421 28.6129 38.8829C28.6428 39.0237 28.6423 39.1886 28.6115 39.3776L28.584 39.5468H26.7094L26.7687 39.1649H28.0647C28.0792 39.0762 28.0734 38.9976 28.0473 38.9292C28.0213 38.8607 27.9779 38.8072 27.9172 38.7686C27.8564 38.7291 27.7817 38.7093 27.693 38.7093C27.6023 38.7093 27.5175 38.7315 27.4384 38.7758C27.3593 38.8202 27.2928 38.8785 27.2388 38.9509C27.1857 39.0222 27.1515 39.0998 27.1361 39.1837L27.0681 39.5627C27.0488 39.6794 27.0527 39.7763 27.0797 39.8534C27.1076 39.9306 27.1559 39.9884 27.2243 40.027C27.2928 40.0646 27.3796 40.0834 27.4847 40.0834C27.5531 40.0834 27.6173 40.0738 27.6771 40.0545C27.7378 40.0352 27.7918 40.0068 27.8391 39.9692C27.8863 39.9306 27.9249 39.8829 27.9548 39.826L28.5174 39.8636C28.4654 40.0005 28.3863 40.1201 28.2802 40.2223C28.1741 40.3235 28.0464 40.4026 27.8969 40.4595C27.7484 40.5154 27.5821 40.5434 27.3979 40.5434ZM28.7888 40.5L29.1591 38.2783H29.7564L29.6913 38.6659H29.7145C29.7781 38.528 29.8635 38.4239 29.9705 38.3535C30.0785 38.2821 30.1947 38.2465 30.3191 38.2465C30.35 38.2465 30.3823 38.2484 30.416 38.2522C30.4507 38.2551 30.4816 38.26 30.5086 38.2667L30.416 38.8149C30.389 38.8053 30.3504 38.7975 30.3003 38.7918C30.2511 38.785 30.2044 38.7816 30.16 38.7816C30.0703 38.7816 29.9869 38.8014 29.9098 38.8409C29.8326 38.8795 29.7675 38.9335 29.7145 39.0029C29.6624 39.0724 29.6282 39.1524 29.6118 39.243L29.405 40.5H28.7888ZM31.318 40.5434C31.0904 40.5434 30.9019 40.4971 30.7524 40.4045C30.603 40.311 30.4979 40.1789 30.4371 40.0082C30.3773 39.8366 30.3672 39.6336 30.4067 39.3993C30.4453 39.1707 30.5229 38.9702 30.6396 38.7975C30.7573 38.6249 30.9048 38.4904 31.0822 38.394C31.2597 38.2976 31.4573 38.2493 31.6753 38.2493C31.8218 38.2493 31.9544 38.273 32.073 38.3202C32.1926 38.3665 32.2919 38.4369 32.371 38.5314C32.4501 38.6249 32.5041 38.7421 32.533 38.8829C32.5629 39.0237 32.5624 39.1886 32.5316 39.3776L32.5041 39.5468H30.6295L30.6888 39.1649H31.9848C31.9993 39.0762 31.9935 38.9976 31.9674 38.9292C31.9414 38.8607 31.898 38.8072 31.8373 38.7686C31.7765 38.7291 31.7018 38.7093 31.6131 38.7093C31.5224 38.7093 31.4376 38.7315 31.3585 38.7758C31.2794 38.8202 31.2129 38.8785 31.1589 38.9509C31.1059 39.0222 31.0716 39.0998 31.0562 39.1837L30.9882 39.5627C30.9689 39.6794 30.9728 39.7763 30.9998 39.8534C31.0277 39.9306 31.076 39.9884 31.1444 40.027C31.2129 40.0646 31.2997 40.0834 31.4048 40.0834C31.4732 40.0834 31.5374 40.0738 31.5972 40.0545C31.6579 40.0352 31.7119 40.0068 31.7592 39.9692C31.8064 39.9306 31.845 39.8829 31.8749 39.826L32.4375 39.8636C32.3855 40.0005 32.3064 40.1201 32.2003 40.2223C32.0943 40.3235 31.9665 40.4026 31.817 40.4595C31.6685 40.5154 31.5022 40.5434 31.318 40.5434ZM33.5247 40.5362C33.355 40.5362 33.2089 40.4928 33.0864 40.406C32.9649 40.3182 32.8781 40.1895 32.826 40.0198C32.7749 39.8491 32.7701 39.6399 32.8116 39.392C32.854 39.1375 32.9302 38.9258 33.0401 38.757C33.15 38.5873 33.2802 38.4605 33.4307 38.3766C33.5811 38.2918 33.7378 38.2493 33.9007 38.2493C34.0242 38.2493 34.124 38.2706 34.2002 38.313C34.2773 38.3545 34.3366 38.4065 34.3781 38.4692C34.4195 38.5309 34.4485 38.5917 34.4649 38.6515H34.4837L34.6702 37.5377H35.285L34.7932 40.5H34.1857L34.245 40.1442H34.219C34.1804 40.2059 34.1293 40.2671 34.0656 40.3279C34.003 40.3877 33.9268 40.4373 33.8371 40.4769C33.7484 40.5164 33.6442 40.5362 33.5247 40.5362ZM33.7966 40.0458C33.895 40.0458 33.9837 40.0188 34.0627 39.9648C34.1418 39.9099 34.2084 39.8332 34.2624 39.7348C34.3164 39.6365 34.354 39.5212 34.3752 39.3891C34.3974 39.257 34.3978 39.1423 34.3766 39.0449C34.3554 38.9475 34.3139 38.8723 34.2522 38.8192C34.1915 38.7662 34.111 38.7397 34.0107 38.7397C33.9094 38.7397 33.8197 38.7672 33.7416 38.8221C33.6645 38.8771 33.6004 38.9533 33.5493 39.0507C33.4991 39.1481 33.4634 39.2609 33.4422 39.3891C33.421 39.5184 33.4196 39.6326 33.4379 39.7319C33.4562 39.8303 33.4953 39.9074 33.555 39.9634C33.6148 40.0183 33.6953 40.0458 33.7966 40.0458ZM36.1712 40.5L36.663 37.5377H37.2792L37.0969 38.6515H37.1143C37.1509 38.5917 37.2001 38.5309 37.2618 38.4692C37.3245 38.4065 37.4011 38.3545 37.4918 38.313C37.5824 38.2706 37.6899 38.2493 37.8143 38.2493C37.9763 38.2493 38.1186 38.2918 38.241 38.3766C38.3635 38.4605 38.4517 38.5873 38.5057 38.757C38.5597 38.9258 38.5655 39.1375 38.5231 39.392C38.4826 39.6399 38.4079 39.8491 38.2989 40.0198C38.1909 40.1895 38.0612 40.3182 37.9098 40.406C37.7594 40.4928 37.5998 40.5362 37.431 40.5362C37.3115 40.5362 37.2131 40.5164 37.136 40.4769C37.0598 40.4373 37.0005 40.3877 36.958 40.3279C36.9156 40.2671 36.8852 40.2059 36.8669 40.1442H36.8365L36.7787 40.5H36.1712ZM36.9595 39.3891C36.9383 39.5212 36.9378 39.6365 36.958 39.7348C36.9793 39.8332 37.0198 39.9099 37.0795 39.9648C37.1403 40.0188 37.2199 40.0458 37.3182 40.0458C37.4195 40.0458 37.5091 40.0183 37.5872 39.9634C37.6663 39.9074 37.7319 39.8303 37.784 39.7319C37.836 39.6326 37.8727 39.5184 37.8939 39.3891C37.9141 39.2609 37.9146 39.1481 37.8953 39.0507C37.8761 38.9533 37.8365 38.8771 37.7767 38.8221C37.7169 38.7672 37.6359 38.7397 37.5337 38.7397C37.4344 38.7397 37.3452 38.7662 37.2661 38.8192C37.188 38.8723 37.1225 38.9475 37.0694 39.0449C37.0174 39.1423 36.9807 39.257 36.9595 39.3891ZM38.8812 41.3331C38.8021 41.3331 38.7298 41.3269 38.6643 41.3143C38.5987 41.3028 38.5447 41.2878 38.5022 41.2695L38.7192 40.8095C38.7877 40.8317 38.8499 40.8433 38.9058 40.8443C38.9627 40.8452 39.0148 40.8308 39.062 40.8009C39.1093 40.771 39.1527 40.7218 39.1922 40.6533L39.2472 40.5593L38.8306 38.2783H39.4555L39.6435 39.9127H39.6666L40.4029 38.2783H41.0784L39.8069 40.7401C39.7443 40.8606 39.67 40.9653 39.5842 41.054C39.4993 41.1427 39.3986 41.2112 39.2819 41.2594C39.1662 41.3086 39.0326 41.3331 38.8812 41.3331Z" fill="black"/>
<path d="M48.0193 41.6433H43.8852V40.7628L46.1827 37.5187H43.9396V36.3676H47.9613V37.2444L45.6637 40.4921H48.0193V41.6433Z" fill="black"/>
<path d="M48.7815 41.6433V36.3676H50.2225V41.6433H48.7815Z" fill="black"/>
<path d="M51.3731 41.6433V36.3676H52.8068V40.4921H54.8503V41.6433H51.3731Z" fill="black"/>
<path d="M55.6996 41.6433V36.3676H57.1406V41.6433H55.6996Z" fill="black"/>
<path d="M60.654 37.461C60.3129 37.461 60.0467 37.6005 59.8555 37.8795C59.6644 38.1562 59.5688 38.5387 59.5688 39.0271C59.5688 40.0423 59.9571 40.5499 60.7339 40.5499C60.9686 40.5499 61.1961 40.5174 61.4163 40.4525C61.6365 40.3875 61.8579 40.3093 62.0805 40.2179V41.4232C61.6377 41.618 61.1368 41.7155 60.5778 41.7155C59.7769 41.7155 59.1623 41.4845 58.734 41.0226C58.3081 40.5607 58.0952 39.8931 58.0952 39.0199C58.0952 38.4738 58.198 37.9938 58.4037 37.58C58.6118 37.1663 58.9094 36.8487 59.2966 36.6274C59.6861 36.4036 60.1435 36.2918 60.6686 36.2918C61.242 36.2918 61.7901 36.4157 62.3128 36.6635L61.8736 37.7857C61.6776 37.6943 61.4816 37.6173 61.2856 37.5548C61.0896 37.4922 60.8791 37.461 60.654 37.461Z" fill="black"/>
<path d="M68.0839 38.9982C68.0839 39.8859 67.8649 40.5607 67.4269 41.0226C66.9889 41.4845 66.3477 41.7155 65.5032 41.7155C64.6708 41.7155 64.032 41.4833 63.5868 41.019C63.144 40.5547 62.9225 39.8787 62.9225 38.991C62.9225 38.1129 63.1427 37.4429 63.5831 36.981C64.026 36.5167 64.6684 36.2846 65.5105 36.2846C66.355 36.2846 66.995 36.5143 67.4305 36.9738C67.8661 37.4333 68.0839 38.1081 68.0839 38.9982ZM64.4325 38.9982C64.4325 40.0182 64.7894 40.5282 65.5032 40.5282C65.8662 40.5282 66.1348 40.4043 66.309 40.1566C66.4856 39.9088 66.5739 39.5226 66.5739 38.9982C66.5739 38.4714 66.4844 38.0828 66.3054 37.8326C66.1287 37.58 65.8637 37.4537 65.5105 37.4537C64.7918 37.4537 64.4325 37.9686 64.4325 38.9982Z" fill="black"/>
<path d="M74.0945 41.6433H72.2144L70.2762 37.9265H70.2435C70.2895 38.511 70.3125 38.9573 70.3125 39.2652V41.6433H69.0421V36.3676H70.915L72.8459 40.0339H72.8677C72.8338 39.5022 72.8169 39.0752 72.8169 38.7528V36.3676H74.0945V41.6433Z" fill="black"/>
</g>
<defs>
<filter id="filter0_d_123_4291" x="0" y="-2" width="96" height="58" filterUnits="userSpaceOnUse" color-interpolation-filters="sRGB">
<feFlood flood-opacity="0" result="BackgroundImageFix"/>
<feColorMatrix in="SourceAlpha" type="matrix" values="0 0 0 0 0 0 0 0 0 0 0 0 0 0 0 0 0 0 127 0" result="hardAlpha"/>
<feOffset dx="2" dy="2"/>
<feGaussianBlur stdDeviation="2"/>
<feColorMatrix type="matrix" values="0 0 0 0 0.229167 0 0 0 0 0.0162326 0 0 0 0 0.0296811 0 0 0 0.24 0"/>
<feBlend mode="normal" in2="BackgroundImageFix" result="effect1_dropShadow_123_4291"/>
<feBlend mode="normal" in="SourceGraphic" in2="effect1_dropShadow_123_4291" result="shape"/>
</filter>
</defs>
</svg>
