<svg width="104" height="32" viewBox="0 0 104 32" fill="none" xmlns="http://www.w3.org/2000/svg">
<path d="M4.99113 4V4.25941L1.09157 0.318902C1.01812 0.245936 1.01814 0.127648 1.0916 0.0547018C1.16507 -0.0182467 1.28418 -0.0182319 1.35763 0.0547342L5.26046 4H4.99113Z" fill="#FDFCFF"/>
<path d="M2.65905 2.73487L4.99113 5.05101V5.35645C4.99113 5.43234 4.99255 5.50807 4.99538 5.58362L2.39303 2.99907C2.31957 2.92611 2.31957 2.80782 2.39303 2.73487C2.46649 2.66191 2.58559 2.66191 2.65905 2.73487Z" fill="#FDFCFF"/>
<path d="M5.16824 6.81183L1.28821 2.95833C1.22228 2.89284 1.11538 2.89285 1.04945 2.95833C0.983517 3.02381 0.983517 3.12998 1.04945 3.19545L5.01652 7.1354L2.57954 9.55571C2.51361 9.62119 2.51361 9.72735 2.57954 9.79283C2.64547 9.85832 2.75237 9.85832 2.8183 9.79283L5.31524 7.31296C5.25914 7.1483 5.21007 6.9811 5.16824 6.81183Z" fill="#FDFCFF"/>
<path d="M3.95392 9.73738L5.63379 8.07387C5.69208 8.19019 5.75415 8.3047 5.81992 8.41719L4.21955 10.002C4.14599 10.0748 4.02688 10.0746 3.95353 10.0016C3.88018 9.92851 3.88035 9.81022 3.95392 9.73738Z" fill="#FDFCFF"/>
<path d="M6.63332 9.50613L5.50645 10.6248C5.43297 10.6977 5.43294 10.816 5.50638 10.889C5.57983 10.9619 5.69893 10.962 5.77241 10.889L6.89835 9.77132C6.85039 9.7262 6.80308 9.68024 6.75646 9.63343C6.71474 9.59154 6.67369 9.5491 6.63332 9.50613Z" fill="#FDFCFF"/>
<path d="M6.4598 11L7.48785 10.2592C7.90828 10.5644 8.3649 10.813 8.84576 11L6.4598 11Z" fill="#FDFCFF"/>
<path d="M24.124 4.42263L27.9618 0.67771C28.0242 0.616735 28.0246 0.516465 27.9626 0.455004C27.902 0.394863 27.8043 0.394493 27.7433 0.454173L23.813 4.29123C23.918 4.33193 24.0217 4.37576 24.124 4.42263Z" fill="#FDFCFF"/>
<path d="M21.4753 2.27382L19.7476 4H19.2173L21.2084 2.01046C21.2816 1.93727 21.4007 1.9369 21.4744 2.00962C21.5481 2.08235 21.5485 2.20064 21.4753 2.27382Z" fill="#FDFCFF"/>
<path d="M11.9006 4L9.11598 1.43218L5.53204 1.43218L8.24683 4H11.9006Z" fill="#FDFCFF"/>
<path d="M3.74909 0.677881L7.0942 4H6.56216L3.48307 0.942084C3.40961 0.869126 3.40961 0.750839 3.48307 0.67788C3.55653 0.604924 3.67563 0.604924 3.74909 0.677881Z" fill="#FDFCFF"/>
<path d="M25.5402 21L24.5121 21.7408C24.0917 21.4356 23.6351 21.187 23.1542 21H25.5402Z" fill="#FDFCFF"/>
<path d="M25.3667 22.4939L26.4936 21.3752C26.567 21.3023 26.5671 21.184 26.4936 21.1111C26.4202 21.0381 26.3011 21.038 26.2276 21.111L25.1016 22.2287C25.1496 22.2738 25.1969 22.3198 25.2435 22.3666C25.2853 22.4085 25.3263 22.4509 25.3667 22.4939Z" fill="#FDFCFF"/>
<path d="M28.0461 22.2626L26.3662 23.9261C26.3079 23.8098 26.2458 23.6953 26.1801 23.5828L27.7804 21.998C27.854 21.9252 27.9731 21.9254 28.0465 21.9984C28.1198 22.0715 28.1196 22.1898 28.0461 22.2626Z" fill="#FDFCFF"/>
<path d="M26.8318 25.1882L30.7118 29.0417C30.7777 29.1072 30.8846 29.1072 30.9506 29.0417C31.0165 28.9762 31.0165 28.87 30.9506 28.8045L26.9835 24.8646L29.4205 22.4443C29.4864 22.3788 29.4864 22.2726 29.4205 22.2072C29.3545 22.1417 29.2476 22.1417 29.1817 22.2072L26.6848 24.687C26.7409 24.8517 26.7899 25.0189 26.8318 25.1882Z" fill="#FDFCFF"/>
<path d="M29.341 29.2651L27.0089 26.949V26.6435C27.0089 26.5677 27.0075 26.4919 27.0046 26.4164L29.607 29.0009C29.6804 29.0739 29.6804 29.1922 29.607 29.2651C29.5335 29.3381 29.4144 29.3381 29.341 29.2651Z" fill="#FDFCFF"/>
<path d="M27.0089 28V27.7406L30.9084 31.6811C30.9819 31.7541 30.9819 31.8724 30.9084 31.9453C30.8349 32.0182 30.7158 32.0182 30.6424 31.9453L26.7395 28H27.0089Z" fill="#FDFCFF"/>
<path d="M7.87597 27.5774L4.03823 31.3223C3.9758 31.3833 3.97541 31.4835 4.03736 31.545C4.09798 31.6051 4.19565 31.6055 4.25673 31.5458L8.18701 27.7088C8.08203 27.6681 7.9783 27.6242 7.87597 27.5774Z" fill="#FDFCFF"/>
<path d="M10.5247 29.7262L12.2524 28H12.7827L10.7916 29.9895C10.7184 30.0627 10.5993 30.0631 10.5256 29.9904C10.4519 29.9177 10.4515 29.7994 10.5247 29.7262Z" fill="#FDFCFF"/>
<path d="M20.0994 28L22.884 30.5678H26.468L23.7532 28H20.0994Z" fill="#FDFCFF"/>
<path d="M28.2509 31.3221L24.9058 28H25.4378L28.5169 31.0579C28.5904 31.1309 28.5904 31.2492 28.5169 31.3221C28.4435 31.3951 28.3244 31.3951 28.2509 31.3221Z" fill="#FDFCFF"/>
<path d="M9.57666 25.0838C9.33699 25.3373 9.14593 25.5727 8.9981 25.7901C8.61308 26.3563 8.54 26.7729 8.62425 27.0631C8.70578 27.3439 8.95004 27.5571 9.32993 27.6875H26.6944V26.6438C26.6924 25.1221 26.0885 23.6634 25.0153 22.5875C23.9422 21.5117 22.4874 20.9065 20.97 20.9044H15.5882C12.525 22.6721 10.7273 23.9655 9.71672 24.945C9.66817 24.9921 9.62151 25.0383 9.57666 25.0838Z" fill="#FDFCFF"/>
<path d="M23.7084 4.86839C23.7516 5.03462 23.7559 5.21587 23.7196 5.41147C23.6366 5.929 23.2839 6.53789 22.4949 7.30358L22.4931 7.30529C21.4086 8.38901 19.5324 9.74525 16.5493 11.3962L16.5139 11.4157C14.5831 12.5309 12.7394 13.7759 10.8902 15.0245C9.93172 15.6717 8.97178 16.3199 7.99751 16.9515L7.99611 16.9524C7.10703 17.5153 6.34863 18.2629 5.77203 19.1446C5.77087 19.1463 5.76968 19.1481 5.76846 19.1498C5.29924 19.8074 4.99231 20.5673 4.87289 21.3669C4.75348 22.1666 4.82499 22.9833 5.08155 23.7499C5.08277 23.7535 5.08385 23.7572 5.0848 23.7609C5.31378 24.6604 5.76622 25.4871 6.39988 26.1638C6.96131 26.7334 7.63973 27.1671 8.38333 27.4376C8.32985 27.338 8.29168 27.2187 8.27103 27.0743C8.1832 26.4899 8.43545 25.7966 9.35643 24.8627C10.4072 23.7539 12.3171 22.346 15.4506 20.6119L15.4858 20.5924H15.505C17.4666 19.4668 19.3362 18.2036 21.2095 16.9378C22.1336 16.3133 23.0587 15.6883 23.9961 15.0788L23.9976 15.0779C24.8908 14.5109 25.6543 13.7609 26.238 12.8771L26.2408 12.873C26.7066 12.2143 27.0115 11.4551 27.1308 10.6565C27.2502 9.85789 27.1807 9.04237 26.9279 8.27569C26.9272 8.2736 26.9265 8.2715 26.9259 8.26938L26.9245 8.26411C26.6801 7.27062 26.1541 6.36936 25.41 5.66915C24.8823 5.1726 24.261 4.7922 23.586 4.54816C23.6401 4.63675 23.6815 4.7419 23.7084 4.86839Z" fill="#FDFCFF"/>
<path d="M5.3067 4.32057H22.6905C22.7429 4.34472 23.0037 4.4585 23.0908 4.50577C23.2513 4.62224 23.3578 4.76774 23.4043 4.93899L23.4047 4.94061C23.4082 4.95742 23.4113 4.97491 23.4142 4.99312C23.4313 5.10603 23.4328 5.22958 23.4104 5.36619C23.3648 5.60048 23.2433 5.88173 23.0148 6.2144C22.8352 6.47586 22.5935 6.76319 22.2804 7.07687L22.2775 7.07964C21.2695 8.05774 19.4785 9.34722 16.4303 11.1037H11.022C9.50552 11.1013 8.05187 10.4957 6.98027 9.41965C5.90865 8.34363 5.3067 6.88517 5.3067 5.36447V4.32057Z" fill="#FDFCFF"/>
<path d="M44.0056 17.0073H36V15.3394L40.4491 9.19385H36.1054V7.01318H43.8932V8.67432L39.444 14.8267H44.0056V17.0073Z" fill="#FDFCFF"/>
<path d="M47.0651 17.0073V7.01318H49.8555V17.0073H47.0651Z" fill="#FDFCFF"/>
<path d="M53.667 17.0073V7.01318H56.4433V14.8267H60.4004V17.0073H53.667Z" fill="#FDFCFF"/>
<path d="M63.6285 17.0073V7.01318H66.4189V17.0073H63.6285Z" fill="#FDFCFF"/>
<path d="M74.8061 9.08447C74.1454 9.08447 73.6299 9.3488 73.2598 9.87744C72.8896 10.4015 72.7045 11.1261 72.7045 12.0513C72.7045 13.9744 73.4566 14.936 74.9607 14.936C75.4152 14.936 75.8557 14.8745 76.2821 14.7515C76.7085 14.6284 77.1372 14.4803 77.5683 14.3071V16.5903C76.7108 16.9595 75.7409 17.144 74.6585 17.144C73.1075 17.144 71.9173 16.7065 71.0879 15.8315C70.2632 14.9565 69.8509 13.6919 69.8509 12.0376C69.8509 11.0031 70.05 10.0939 70.4483 9.31006C70.8513 8.5262 71.4276 7.92464 72.1773 7.50537C72.9318 7.08154 73.8174 6.86963 74.8342 6.86963C75.9447 6.86963 77.006 7.10433 78.0182 7.57373L77.1677 9.69971C76.7881 9.52653 76.4086 9.3807 76.029 9.26221C75.6495 9.14372 75.2418 9.08447 74.8061 9.08447Z" fill="#FDFCFF"/>
<path d="M90.7771 11.9966C90.7771 13.6782 90.3531 14.9565 89.505 15.8315C88.6568 16.7065 87.4151 17.144 85.7798 17.144C84.1679 17.144 82.9308 16.7043 82.0686 15.8247C81.2111 14.9451 80.7824 13.6646 80.7824 11.9829C80.7824 10.3195 81.2088 9.05029 82.0616 8.17529C82.9191 7.29574 84.1632 6.85596 85.7938 6.85596C87.4292 6.85596 88.6685 7.29118 89.512 8.16162C90.3554 9.03206 90.7771 10.3104 90.7771 11.9966ZM83.7063 11.9966C83.7063 13.9289 84.3975 14.895 85.7798 14.895C86.4826 14.895 87.0028 14.6603 87.3401 14.1909C87.6822 13.7215 87.8532 12.9901 87.8532 11.9966C87.8532 10.9985 87.6798 10.2625 87.3331 9.78857C86.991 9.31006 86.4779 9.0708 85.7938 9.0708C84.4021 9.0708 83.7063 10.0461 83.7063 11.9966Z" fill="#FDFCFF"/>
<path d="M104 17.0073H100.359L96.6059 9.96631H96.5426C96.6316 11.0737 96.6761 11.9191 96.6761 12.5024V17.0073H94.2161V7.01318H97.8429L101.582 13.9585H101.624C101.559 12.9513 101.526 12.1424 101.526 11.5317V7.01318H104V17.0073Z" fill="#FDFCFF"/>
<path d="M38.0979 19.4465V23.144H37.333V19.4465H38.0979ZM39.3293 19.4465V20.0559H36.1174V19.4465H39.3293ZM42.5983 22.5378V23.144H40.4813V22.5378H42.5983ZM40.7225 19.4465V23.144H39.9576V19.4465H40.7225ZM42.3253 20.9287V21.5349H40.4813V20.9287H42.3253ZM42.5919 19.4465V20.0559H40.4813V19.4465H42.5919ZM45.553 21.9126H46.321C46.302 22.1644 46.2279 22.3866 46.0989 22.5791C45.9719 22.7716 45.7942 22.9229 45.5657 23.033C45.3371 23.1409 45.061 23.1948 44.7373 23.1948C44.4855 23.1948 44.2591 23.1536 44.0581 23.071C43.8592 22.9885 43.6889 22.8711 43.5471 22.7188C43.4075 22.5643 43.2996 22.3781 43.2234 22.1602C43.1493 21.9401 43.1123 21.6936 43.1123 21.4207V21.1731C43.1123 20.9001 43.1504 20.6547 43.2266 20.4368C43.3027 20.2167 43.4128 20.0295 43.5566 19.875C43.7005 19.7184 43.8719 19.5999 44.0708 19.5195C44.2718 19.437 44.4971 19.3958 44.7468 19.3958C45.0748 19.3958 45.3509 19.4518 45.5752 19.564C45.7995 19.674 45.974 19.8274 46.0989 20.0242C46.2237 20.2209 46.2988 20.4463 46.3242 20.7002H45.5593C45.5466 20.5627 45.5117 20.4421 45.4546 20.3384C45.3975 20.2326 45.3118 20.1501 45.1975 20.0908C45.0832 20.0316 44.933 20.002 44.7468 20.002C44.6029 20.002 44.477 20.0273 44.3691 20.0781C44.2612 20.1268 44.1702 20.2008 44.0962 20.3003C44.0242 20.3997 43.9692 20.5225 43.9311 20.6685C43.8952 20.8123 43.8772 20.9795 43.8772 21.1699V21.4207C43.8772 21.6069 43.8931 21.7729 43.9248 21.9189C43.9586 22.0628 44.0105 22.1845 44.0803 22.2839C44.1501 22.3834 44.239 22.4596 44.3469 22.5125C44.4569 22.5632 44.5871 22.5886 44.7373 22.5886C44.9171 22.5886 45.0642 22.5643 45.1785 22.5156C45.2927 22.4648 45.3805 22.3887 45.4419 22.2871C45.5032 22.1855 45.5403 22.0607 45.553 21.9126ZM49.6661 21.0208V21.6301H47.5714V21.0208H49.6661ZM47.7872 19.4465V23.144H47.0223V19.4465H47.7872ZM50.2247 19.4465V23.144H49.4598V19.4465H50.2247ZM54.3093 19.4465V23.144H53.5412L51.8718 20.5955V23.144H51.1069V19.4465H51.8718L53.5412 21.9951V19.4465H54.3093ZM58.4098 21.208V21.3857C58.4098 21.6672 58.3696 21.9189 58.2892 22.1411C58.2088 22.3633 58.0945 22.5537 57.9464 22.7124C57.8004 22.869 57.6248 22.9885 57.4195 23.071C57.2143 23.1536 56.9879 23.1948 56.7403 23.1948C56.4928 23.1948 56.2664 23.1536 56.0611 23.071C55.8559 22.9885 55.6782 22.869 55.5279 22.7124C55.3777 22.5537 55.2613 22.3633 55.1788 22.1411C55.0984 21.9189 55.0582 21.6672 55.0582 21.3857V21.208C55.0582 20.9266 55.0984 20.6748 55.1788 20.4526C55.2613 20.2305 55.3766 20.04 55.5248 19.8813C55.6729 19.7227 55.8495 19.6021 56.0548 19.5195C56.26 19.437 56.4864 19.3958 56.734 19.3958C56.9837 19.3958 57.2101 19.437 57.4132 19.5195C57.6184 19.6021 57.7951 19.7227 57.9432 19.8813C58.0934 20.04 58.2088 20.2305 58.2892 20.4526C58.3696 20.6748 58.4098 20.9266 58.4098 21.208ZM57.6449 21.3857V21.2017C57.6449 21.0091 57.6248 20.8388 57.5846 20.6907C57.5444 20.5426 57.4841 20.4177 57.4037 20.3162C57.3254 20.2146 57.2302 20.1374 57.118 20.0845C57.0059 20.0316 56.8779 20.0051 56.734 20.0051C56.5922 20.0051 56.4642 20.0316 56.35 20.0845C56.2378 20.1374 56.1426 20.2146 56.0643 20.3162C55.9881 20.4177 55.9289 20.5426 55.8866 20.6907C55.8464 20.8388 55.8263 21.0091 55.8263 21.2017V21.3857C55.8263 21.5762 55.8464 21.7465 55.8866 21.8967C55.9289 22.0448 55.9892 22.1707 56.0675 22.2744C56.1479 22.376 56.2442 22.4543 56.3563 22.5093C56.4706 22.5622 56.5986 22.5886 56.7403 22.5886C56.8842 22.5886 57.0112 22.5622 57.1212 22.5093C57.2333 22.4543 57.3285 22.376 57.4068 22.2744C57.4851 22.1707 57.5444 22.0448 57.5846 21.8967C57.6248 21.7465 57.6449 21.5762 57.6449 21.3857ZM61.6946 22.5378V23.144H59.6919V22.5378H61.6946ZM59.9331 19.4465V23.144H59.1682V19.4465H59.9331ZM65.4871 21.208V21.3857C65.4871 21.6672 65.4469 21.9189 65.3665 22.1411C65.2861 22.3633 65.1719 22.5537 65.0238 22.7124C64.8778 22.869 64.7022 22.9885 64.4969 23.071C64.2917 23.1536 64.0653 23.1948 63.8177 23.1948C63.5702 23.1948 63.3438 23.1536 63.1385 23.071C62.9333 22.9885 62.7555 22.869 62.6053 22.7124C62.4551 22.5537 62.3387 22.3633 62.2562 22.1411C62.1758 21.9189 62.1356 21.6672 62.1356 21.3857V21.208C62.1356 20.9266 62.1758 20.6748 62.2562 20.4526C62.3387 20.2305 62.454 20.04 62.6021 19.8813C62.7503 19.7227 62.9269 19.6021 63.1322 19.5195C63.3374 19.437 63.5638 19.3958 63.8114 19.3958C64.061 19.3958 64.2874 19.437 64.4906 19.5195C64.6958 19.6021 64.8725 19.7227 65.0206 19.8813C65.1708 20.04 65.2861 20.2305 65.3665 20.4526C65.4469 20.6748 65.4871 20.9266 65.4871 21.208ZM64.7223 21.3857V21.2017C64.7223 21.0091 64.7022 20.8388 64.662 20.6907C64.6218 20.5426 64.5614 20.4177 64.481 20.3162C64.4028 20.2146 64.3075 20.1374 64.1954 20.0845C64.0833 20.0316 63.9552 20.0051 63.8114 20.0051C63.6696 20.0051 63.5416 20.0316 63.4273 20.0845C63.3152 20.1374 63.22 20.2146 63.1417 20.3162C63.0655 20.4177 63.0063 20.5426 62.964 20.6907C62.9238 20.8388 62.9037 21.0091 62.9037 21.2017V21.3857C62.9037 21.5762 62.9238 21.7465 62.964 21.8967C63.0063 22.0448 63.0666 22.1707 63.1449 22.2744C63.2253 22.376 63.3215 22.4543 63.4337 22.5093C63.5479 22.5622 63.676 22.5886 63.8177 22.5886C63.9616 22.5886 64.0885 22.5622 64.1986 22.5093C64.3107 22.4543 64.4059 22.376 64.4842 22.2744C64.5625 22.1707 64.6218 22.0448 64.662 21.8967C64.7022 21.7465 64.7223 21.5762 64.7223 21.3857ZM69.3591 21.208V22.6807C69.2977 22.7505 69.2046 22.8256 69.0798 22.906C68.955 22.9864 68.792 23.0552 68.591 23.1123C68.39 23.1673 68.1435 23.1948 67.8515 23.1948C67.5976 23.1948 67.3659 23.1557 67.1565 23.0774C66.9491 22.997 66.7692 22.8806 66.6169 22.7283C66.4646 22.5759 66.3471 22.3897 66.2646 22.1697C66.1842 21.9475 66.144 21.6947 66.144 21.4111V21.1794C66.144 20.8959 66.1831 20.6441 66.2614 20.4241C66.3397 20.2019 66.4508 20.0146 66.5947 19.8623C66.7407 19.71 66.9152 19.5946 67.1184 19.5164C67.3215 19.436 67.5479 19.3958 67.7976 19.3958C68.1361 19.3958 68.4143 19.4486 68.6323 19.5544C68.8523 19.6581 69.0206 19.802 69.1369 19.9861C69.2533 20.1702 69.3263 20.3818 69.3559 20.6208H68.6101C68.5889 20.4939 68.5487 20.3849 68.4895 20.2939C68.4302 20.2008 68.3456 20.1289 68.2356 20.0781C68.1276 20.0273 67.988 20.002 67.8166 20.002C67.6727 20.002 67.5437 20.0273 67.4294 20.0781C67.3173 20.1268 67.222 20.2008 67.1438 20.3003C67.0676 20.3997 67.0094 20.5225 66.9692 20.6685C66.9311 20.8123 66.9121 20.9806 66.9121 21.1731V21.4111C66.9121 21.6037 66.9332 21.774 66.9755 21.9221C67.02 22.0681 67.0835 22.1908 67.166 22.2903C67.2506 22.3897 67.3532 22.4648 67.4738 22.5156C67.5966 22.5643 67.7362 22.5886 67.8928 22.5886C68.1023 22.5886 68.2599 22.5675 68.3657 22.5251C68.4715 22.4807 68.5466 22.4395 68.591 22.4014V21.7571H67.7912V21.208H69.3591ZM70.9776 19.4465V23.144H70.2095V19.4465H70.9776ZM74.548 22.5378V23.144H72.4311V22.5378H74.548ZM72.6723 19.4465V23.144H71.9074V19.4465H72.6723ZM74.2751 20.9287V21.5349H72.4311V20.9287H74.2751ZM74.5417 19.4465V20.0559H72.4311V19.4465H74.5417ZM77.2679 22.176C77.2679 22.1062 77.2552 22.0438 77.2298 21.9888C77.2065 21.9338 77.1653 21.884 77.106 21.8396C77.0489 21.7931 76.9696 21.7497 76.868 21.7095C76.7685 21.6693 76.6426 21.6312 76.4903 21.5952C76.2703 21.5423 76.0756 21.4831 75.9063 21.4175C75.7392 21.3498 75.5985 21.2715 75.4842 21.1826C75.3699 21.0938 75.2832 20.989 75.2239 20.8684C75.1668 20.7478 75.1383 20.6071 75.1383 20.4463C75.1383 20.2918 75.1721 20.1511 75.2398 20.0242C75.3075 19.8951 75.4038 19.784 75.5286 19.6909C75.6535 19.5957 75.8016 19.5227 75.973 19.4719C76.1444 19.4211 76.3327 19.3958 76.5379 19.3958C76.8363 19.3958 77.0954 19.4444 77.3155 19.5417C77.5356 19.6391 77.7059 19.7734 77.8265 19.9448C77.9492 20.1141 78.0106 20.3109 78.0106 20.5352H77.2457C77.2457 20.4294 77.2182 20.3341 77.1632 20.2495C77.1103 20.1649 77.032 20.0972 76.9283 20.0464C76.8246 19.9956 76.6945 19.9702 76.5379 19.9702C76.3877 19.9702 76.2639 19.9924 76.1666 20.0369C76.0692 20.0792 75.9962 20.1353 75.9476 20.2051C75.901 20.2728 75.8778 20.3468 75.8778 20.4272C75.8778 20.4907 75.8915 20.5479 75.919 20.5986C75.9486 20.6494 75.9952 20.696 76.0587 20.7383C76.1221 20.7806 76.2047 20.8208 76.3062 20.8589C76.4078 20.897 76.5316 20.934 76.6776 20.97C76.8955 21.0208 77.088 21.0811 77.2552 21.1509C77.4224 21.2207 77.562 21.3032 77.6741 21.3984C77.7863 21.4915 77.8699 21.6016 77.9249 21.7285C77.982 21.8534 78.0106 21.9962 78.0106 22.157C78.0106 22.3199 77.9767 22.4659 77.909 22.595C77.8413 22.7219 77.744 22.8298 77.617 22.9187C77.4922 23.0076 77.3419 23.0763 77.1663 23.125C76.9907 23.1715 76.795 23.1948 76.5792 23.1948C76.3887 23.1948 76.1994 23.1715 76.0111 23.125C75.8249 23.0785 75.6566 23.0065 75.5064 22.9092C75.3562 22.8118 75.2356 22.6881 75.1446 22.5378C75.0557 22.3855 75.0113 22.2067 75.0113 22.0015H75.7794C75.7794 22.1115 75.7984 22.2067 75.8365 22.2871C75.8767 22.3654 75.9328 22.4299 76.0047 22.4807C76.0788 22.5294 76.1666 22.5653 76.2681 22.5886C76.3697 22.6119 76.4818 22.6235 76.6046 22.6235C76.759 22.6235 76.8849 22.6034 76.9822 22.5632C77.0817 22.5209 77.1536 22.4659 77.1981 22.3982C77.2446 22.3305 77.2679 22.2564 77.2679 22.176ZM82.022 21.8396H81.0001V21.2302H82.022C82.1871 21.2302 82.3214 21.2059 82.4251 21.1572C82.5309 21.1086 82.6081 21.043 82.6568 20.9604C82.7076 20.8758 82.733 20.7806 82.733 20.6748C82.733 20.5648 82.7076 20.4632 82.6568 20.3701C82.6081 20.277 82.5309 20.2019 82.4251 20.1448C82.3214 20.0855 82.1871 20.0559 82.022 20.0559H81.2571V23.144H80.4922V19.4465H82.022C82.3331 19.4465 82.5986 19.4994 82.8187 19.6052C83.0387 19.711 83.2059 19.856 83.3201 20.04C83.4365 20.222 83.4947 20.4315 83.4947 20.6685C83.4947 20.8462 83.4619 21.007 83.3963 21.1509C83.3307 21.2948 83.2344 21.4185 83.1075 21.5222C82.9805 21.6238 82.8261 21.7021 82.6441 21.7571C82.4621 21.8121 82.2548 21.8396 82.022 21.8396ZM85.7099 22.1855L86.6398 19.4465H87.4492L86.0527 23.144H85.4846L85.7099 22.1855ZM84.6784 19.4465L85.5988 22.1792L85.8305 23.144H85.2592L83.8659 19.4465H84.6784ZM89.7056 19.4465V23.144H88.9407V19.4465H89.7056ZM90.9371 19.4465V20.0559H87.7251V19.4465H90.9371ZM95.8404 22.5378V23.144H93.8377V22.5378H95.8404ZM94.0789 19.4465V23.144H93.314V19.4465H94.0789ZM97.9667 19.4465V23.144H97.2018V19.4465H97.9667ZM99.1982 19.4465V20.0559H95.9862V19.4465H99.1982ZM101.023 23.144H100.16L100.166 22.5378H101.023C101.266 22.5378 101.465 22.4934 101.62 22.4045C101.774 22.3136 101.887 22.1824 101.959 22.011C102.033 21.8396 102.07 21.6312 102.07 21.3857V21.2017C102.07 21.0176 102.049 20.8547 102.007 20.7129C101.967 20.569 101.904 20.4484 101.82 20.3511C101.735 20.2537 101.627 20.1807 101.496 20.1321C101.367 20.0813 101.213 20.0559 101.036 20.0559H100.144V19.4465H101.036C101.3 19.4465 101.542 19.4889 101.762 19.5735C101.985 19.6581 102.175 19.7787 102.334 19.9353C102.495 20.0898 102.618 20.2749 102.705 20.4907C102.794 20.7065 102.838 20.9456 102.838 21.208V21.3857C102.838 21.7349 102.761 22.0417 102.607 22.3062C102.454 22.5706 102.242 22.7769 101.969 22.925C101.698 23.071 101.383 23.144 101.023 23.144ZM100.591 19.4465V23.144H99.8264V19.4465H100.591Z" fill="#FDFCFF"/>
</svg>
